<?xml version="1.0" encoding="UTF-8" standalone="no"?>
<!-- Uploaded to: SVG Repo, www.svgrepo.com, Transformed by: SVG Repo Mixer Tools -->

<svg
   width="800px"
   height="800px"
   viewBox="0 0 64 64"
   fill="#000000"
   version="1.1"
   id="svg15"
   sodipodi:docname="falling-asteroid-svgrepo-com (2).svg"
   inkscape:version="1.3.2 (091e20e, 2023-11-25, custom)"
   xmlns:inkscape="http://www.inkscape.org/namespaces/inkscape"
   xmlns:sodipodi="http://sodipodi.sourceforge.net/DTD/sodipodi-0.dtd"
   xmlns="http://www.w3.org/2000/svg"
   xmlns:svg="http://www.w3.org/2000/svg">
  <defs
     id="defs15" />
  <sodipodi:namedview
     id="namedview15"
     pagecolor="#ffffff"
     bordercolor="#666666"
     borderopacity="1.0"
     inkscape:showpageshadow="2"
     inkscape:pageopacity="0.0"
     inkscape:pagecheckerboard="0"
     inkscape:deskcolor="#d1d1d1"
     showgrid="false"
     inkscape:zoom="1.47625"
     inkscape:cx="399.6613"
     inkscape:cy="454.19136"
     inkscape:window-width="2560"
     inkscape:window-height="1377"
     inkscape:window-x="-8"
     inkscape:window-y="-8"
     inkscape:window-maximized="1"
     inkscape:current-layer="SVGRepo_iconCarrier" />
  <g
     id="SVGRepo_bgCarrier"
     stroke-width="0" />
  <g
     id="SVGRepo_tracerCarrier"
     stroke-linecap="round"
     stroke-linejoin="round" />
  <g
     id="SVGRepo_iconCarrier">
    <path
       d="m19.29 32.56c0-.42-1.5-1.71-1.79-1.75a.79.79 0 0 1 -.79-.83c0-.67-.21-4.5 5-7.46s9.58-2.42 11.37-.84.5 2.09 2.71 2.8 5.38.58 7.25 4.08 2.54 6.46 1 9.71-3 3.08-3.83 4.87-2 5.21-3.42 5.67-4.12-.75-5-.83a21 21 0 0 0 -3.79.12c-1.75.17-1.83 1-3.29.25s-2.46-3.46-4.29-3.79-4 0-4.92-2.54-1-6.54.08-7.17 3.67-1.58 3.71-2.29z"
       fill="#ffffff"
       id="path2" />
    <path
       d="m16.87 36c.49-.49 3.75-1.46 4.25-2.79a3 3 0 0 0 -1.12-3.07c-.5-.33-1.09-.62-1-1.21a7.19 7.19 0 0 1 5.12-5.58c4.38-1.5 6-1.79 7.67-.12s1.75 2.66 4.17 3.41 3.91.38 5.2 2.42 2.17 5.25 1.5 7.42-1.45 3.08-2.12 3.52a6.82 6.82 0 0 0 -1.79 1.58 4.64 4.64 0 0 0 -.34.75 17.1 17.1 0 0 0 -1.5-2.67c-.2 0-.79 0-.62.3s1.62 2.83 1.71 3.16a8.92 8.92 0 0 1 -1.29 3.38c-.55.58-2.05.54-3.38.12a7.47 7.47 0 0 0 -3.62-.46c-1.63.17-2.75 1-4 .25s-2-2.66-3.75-3.2-3.55-.38-4.5-1.92a8.46 8.46 0 0 1 -.59-5.29z"
       fill="#000000"
       id="path4" />
    <path
       d="m18.75 36.27a.48.48 0 0 1 .75.25 6.4 6.4 0 0 0 0 2.37c.33 1.13 1 1.63.79 1.92s-.79.58-1.08.29a5 5 0 0 1 -1-2.46 4 4 0 0 1 .54-2.37z"
       fill="#ffffff"
       id="path5" />
    <path
       d="m28.25 25.81a2.64 2.64 0 0 1 4 2.92c-.55 2.29-4.13 3.91-5.46 1.95s-.38-3.95 1.46-4.87z"
       fill="#ffffff"
       id="path6" />
    <path
       d="m28.67 26.81a1.82 1.82 0 0 1 2.73 2c-.38 1.58-2.84 2.7-3.76 1.35a2.23 2.23 0 0 1 1.03-3.35z"
       fill="#ffffff"
       id="path7" />
    <g
       fill="#ffffff"
       id="g15">
      <path
         d="m32.5 40.81c.22.1.41-.54.08-.88a4.49 4.49 0 0 0 -3.79-.29c-1.5.67-2.83 3-1.75 4.29a4.15 4.15 0 0 0 3.37 1.5c.71 0 1.84-.54 1.5-.87s-2.87-.54-2.33-2 2.04-2.17 2.92-1.75z"
         id="path8" />
      <path
         d="m40.21 32.27c-.3-.21-2.88-1-3.63 1.12s-.83 3 .08 3.79a2.92 2.92 0 0 0 2.67.67c.33-.21.29-.83.08-.92s-1.79-.66-1.29-2a3.8 3.8 0 0 1 1.79-1.88 1.1 1.1 0 0 0 .3-.78z"
         id="path9" />
      <path
         d="m38.12 38.85c-.23-.23.59-.37.71-.21s.63 1 .38 1.34-.42.62-.59.41a14.07 14.07 0 0 1 -.5-1.54z"
         id="path10" />
      <path
         d="m35.5 40.68a7.23 7.23 0 0 1 1.5 2.71c-.09.42 0 .88-.38.67a11.47 11.47 0 0 1 -1.62-2.67c-.09-.29.33-.66.5-.71z"
         id="path11" />
      <path
         d="m30.79 33.77c.24-.24.37-.5.62-.25s1.67 3.08 1.38 3.41-.29.67-.58.34a15 15 0 0 1 -1.42-3.5z"
         id="path12" />
      <path
         d="m32.71 32.64c-.17-.32.29-.54.54-.41s1.5 3 1.21 3.2-.38.63-.63.3a32 32 0 0 1 -1.12-3.09z"
         id="path13" />
      <path
         d="m34 30.48c.1-.25.62-.67.83-.46a8.56 8.56 0 0 1 1.08 2.66c-.08.34-.58.59-.58.59a19 19 0 0 1 -1.33-2.79z"
         id="path14" />
      <path
         d="m35.83 28.52s.29-.46.54-.38a2.89 2.89 0 0 1 .88 1.59c-.09.29 0 .54-.38.41s-.96-1.5-1.04-1.62z"
         id="path15" />
    </g>
  </g>
</svg>
