<?xml version="1.0" encoding="UTF-8" standalone="no"?>
<svg
   version="1.1"
   id="Layer_1"
   x="0px"
   y="0px"
   width="100%"
   viewBox="0 0 1920 1080"
   enable-background="new 0 0 1920 1080"
   xml:space="preserve"
   sodipodi:docname="DesertTrans2p.svg"
   inkscape:version="1.3.2 (091e20e, 2023-11-25, custom)"
   xmlns:inkscape="http://www.inkscape.org/namespaces/inkscape"
   xmlns:sodipodi="http://sodipodi.sourceforge.net/DTD/sodipodi-0.dtd"
   xmlns="http://www.w3.org/2000/svg"
   xmlns:svg="http://www.w3.org/2000/svg"><defs
   id="defs371" /><sodipodi:namedview
   id="namedview371"
   pagecolor="#ffffff"
   bordercolor="#666666"
   borderopacity="1.0"
   inkscape:showpageshadow="2"
   inkscape:pageopacity="0.0"
   inkscape:pagecheckerboard="0"
   inkscape:deskcolor="#d1d1d1"
   showgrid="false"
   inkscape:zoom="0.6607029"
   inkscape:cx="1056.4506"
   inkscape:cy="712.12038"
   inkscape:window-width="2560"
   inkscape:window-height="1377"
   inkscape:window-x="-8"
   inkscape:window-y="-8"
   inkscape:window-maximized="1"
   inkscape:current-layer="Layer_1" />

<rect
   style="display:inline;fill:none;stroke:none;stroke-width:7.55905512;stroke-linejoin:bevel;stroke-dasharray:none;stroke-opacity:1;paint-order:stroke fill markers"
   id="rect371"
   width="1936.4858"
   height="1140.364"
   x="-13.190238"
   y="-52.390148" /><path
   fill="#F17C1F"
   opacity="1"
   stroke="none"
   d="m 1923.0051,686.62869 c 0.04,-35.89477 -151.2743,-2.15434 -155.3968,-2.11772 -6.6878,0.0594 -9.5053,2.87091 -9.6054,9.62921 -0.027,1.81476 -0.024,3.62994 -0.4369,5.98932 -13.2184,7.39245 -27.0226,10.48443 -41.4186,11.32489 -0.046,-0.65717 -0.139,-1.31494 -0.1316,-1.9715 0.1308,-11.52802 -0.5058,-12.26691 -11.9288,-14.04797 -0.7753,-0.12091 -1.4963,-0.5907 -2.8221,-1.28089 -12.5972,-5.09222 -24.1712,-2.92022 -35.6385,2.23279 3.6531,-6.19434 8.6,-10.74322 14.9355,-13.0434 6.1889,-2.24694 12.7888,-3.36169 19.653,-5.08514 -16.1888,-4.31702 -30.4552,-1.73132 -42.8243,10.05817 2.0432,-9.08203 7.5394,-14.59076 17.1404,-17.6579 -12.0676,-1.38867 -18.8748,4.17981 -24.1616,13.50384 -1.4247,-8.21038 2.0186,-13.86267 6.3579,-19.22198 -0.4196,-0.38055 -0.8391,-0.76117 -1.2587,-1.14172 -3.6666,3.42919 -7.3331,6.85846 -11.4919,10.74792 -1.0175,-14.09686 -1.9009,-27.89374 -3.0806,-41.66522 -0.3247,-3.79053 1.3557,-4.91455 4.608,-5.39081 5.9281,-0.8681 11.7991,-2.1792 17.745,-2.85638 4.4684,-0.50898 6.1883,-2.68518 5.7283,-6.94825 -1.0991,-10.18585 -2.1647,-20.37567 -3.3344,-30.55346 -0.3896,-3.3902 -1.401,-6.16815 -5.8914,-5.62482 -4.2073,0.50903 -7.0806,1.94116 -6.6466,6.79291 0.2042,2.28393 0.4876,4.56097 0.681,6.8457 0.4813,5.68915 0.9316,11.38098 1.4125,17.29443 -5.6226,0.84986 -10.4574,1.58069 -15.8615,2.39747 -0.8253,-9.67896 -1.8606,-18.52954 -2.2589,-27.40863 -0.4032,-8.99353 -0.3943,-9.20624 -9.3186,-8.94556 -3.806,0.11121 -6.0095,1.51752 -5.7095,5.66254 0.7177,9.91375 1.3395,19.83502 2.1276,29.7431 0.5367,6.74872 1.3876,13.47272 1.915,20.22198 0.4693,6.00263 0.6868,12.02484 1.0197,18.1164 H 1615.07 c 0,-5.68665 0.01,-11.086 0,-16.48535 0,-2.49518 0.176,-5.01374 -0.1001,-7.47998 -0.4023,-3.59437 -2.3041,-5.72889 -6.2721,-5.6294 -4.0212,0.10083 -5.8812,2.39789 -5.8052,6.01434 0.2196,10.46228 0.6171,20.92365 1.1457,31.37519 0.1996,3.94598 2.5132,5.90753 6.6418,5.71728 4.491,-0.20685 9.0145,0.0669 13.4832,-0.32892 3.7138,-0.32898 5.3878,0.76758 4.8645,4.60706 -0.1933,1.41717 -0.2519,2.85278 -0.4076,4.70721 h -9.3114 c 3.927,1.97089 7.3022,3.66492 10.6775,5.35889 -0.1929,0.41498 -0.3858,0.8299 -0.5786,1.24487 -1.3394,-0.46539 -2.706,-0.86493 -4.014,-1.40612 -13.688,-5.66376 -27.3365,-11.42328 -41.0528,-17.01722 -48.8537,-19.92382 -97.7057,-39.85235 -146.6493,-59.5534 -3.3146,-1.33423 -7.5693,-1.71619 -11.0669,-0.99317 -27.5405,5.69312 -55.0023,11.76758 -82.4913,17.71119 -3.1549,0.68219 -6.3278,1.28137 -9.1557,1.85113 -3.1972,-6.53107 2.8291,-8.29101 5.0213,-12.54504 -2.3792,0.76977 -4.1455,1.34131 -6.5909,2.1325 -0.5977,-6.43347 -1.1533,-12.41192 -1.7434,-18.76245 9.8006,-1.79303 19.0479,-3.46832 28.2885,-5.18103 6.5587,-1.21563 8.5653,-4.01776 7.3514,-10.39141 -1.6955,-8.9032 -3.7405,-17.75049 -5.0874,-26.70429 -0.5481,-3.64301 -1.2464,-6.89172 -5.0433,-7.61035 -4.4714,-0.84632 -9.1611,-0.54975 -12.361,3.37146 -1.1069,1.35651 -1.7781,3.61169 -1.6083,5.35516 0.3642,3.74048 1.4755,7.40235 2.15,11.12018 0.7318,4.03449 1.3145,8.09601 2.0418,12.64276 -4.5365,0.84021 -8.5792,1.04114 -12.1955,2.38751 -5.3811,2.00324 -5.8976,-1.00109 -6.2056,-4.90063 -0.3384,-4.28552 -0.6649,-8.57593 -1.1735,-12.8432 -1.894,-15.89173 -4.0152,-31.75812 -5.7415,-47.66763 -1.0215,-9.4151 -2.5776,-10.88132 -11.8106,-9.19898 -1.618,0.29486 -3.2031,0.77167 -4.8025,1.16776 -6.2201,1.54022 -6.8868,3.31445 -5.9195,9.68511 1.4983,9.86841 2.326,19.83869 3.4797,30.13709 -7.109,0.69373 -13.7048,0.98523 -20.1611,2.09131 -4.2993,0.73663 -5.7744,-0.53674 -5.898,-4.65344 -0.2037,-6.79395 -0.6487,-13.58063 -0.9887,-20.37055 -0.1913,-3.81744 -2.1878,-5.80328 -6.0145,-5.83063 -1.6628,-0.0119 -3.3276,0.12189 -4.9899,0.21961 -6.3455,0.37286 -8.1665,1.99383 -7.8999,8.18774 0.4559,10.59809 1.1433,21.19153 2.0167,31.76349 0.3078,3.72693 2.796,6.11963 6.6957,5.92468 5.2634,-0.26318 10.4989,-1.03906 15.7578,-1.44689 7.6805,-0.59559 15.3713,-1.05957 22.9498,-1.57233 1.9204,15.6402 3.8129,30.62579 5.5425,45.63012 0.2392,2.07508 0.4763,4.91999 -0.6514,6.25422 -5.928,7.01428 -9.5692,14.95953 -10.906,25.49896 -5.2881,-8.73169 -3.1798,-16.68048 -2.5603,-24.45886 -0.5941,-0.12995 -1.1884,-0.25995 -1.7825,-0.3899 -2.1097,7.23578 -4.2195,14.47156 -6.3296,21.70874 -10.2008,-2.73132 -15.8032,-2.16296 -20.8609,2.52643 6.3883,1.04633 13.5913,-1.51513 18.9247,5.17749 -9.2718,-0.16949 -17.3799,1.34668 -22.3545,10.05078 0.2035,0.36335 0.6032,0.53705 1.3091,0.52344 6.7222,-4.03039 17.4437,-4.82147 21.9945,-1.7876 -17.9025,4.05475 -31.6593,16.78107 -32.3356,30.7945 8.5428,-13.70789 20.3216,-20.37677 36.3403,-20.43085 -16.0145,9.86078 -24.261,19.52374 -23.8736,27.68524 17.8872,-16.58624 18.4181,-16.94207 24.2779,-15.86938 -5.414,11.15118 -10.7734,22.18982 -16.3296,33.39282 -0.3468,0.4696 -0.4969,0.77484 -0.6008,1.06134 0.046,-0.0186 0.082,0.0745 -0.2911,0.0593 -2.2946,0.90381 -4.1817,1.90417 -6.1446,2.72271 -3.0049,1.25312 -5.9741,2.87665 -9.1197,3.43482 -3.8139,0.67663 -7.7953,0.40838 -11.723,0.52814 -0.019,-0.0209 -0.06,-0.059 0.097,-0.33087 1.0615,-1.41797 1.9659,-2.56403 3.0083,-3.73011 0.2439,-0.15381 0.3502,-0.28753 0.4565,-0.42126 -0.1908,0.15582 -0.3817,0.3117 -0.9382,0.47626 -3.6546,1.43957 -6.7911,1.5913 -9.6334,-1.14582 -0.043,-0.057 -0.2477,-0.0306 -0.2477,-0.0306 l -2.7401,5.14252 c -0.022,0.0206 -0.061,0.0654 -0.4723,0.0346 -4.1882,-0.36451 -7.9651,-0.69837 -11.7418,-1.03223 -0.024,0.40326 -0.049,0.80652 -0.073,1.20972 3.1004,1.05536 6.2007,2.11071 9.301,3.16601 -2.0948,1.10932 -3.9178,0.84674 -5.625,1.1789 -1.9346,0.37634 -3.7401,1.37121 -5.6474,1.94513 -3.556,1.07019 -5.9568,0.39788 -5.7665,-4.03076 0.1,-2.32715 0.036,-4.66132 0.044,-6.99232 0.034,-9.84228 -0.7474,-9.42547 8.9496,-9.66162 1.9845,-0.0483 5.3005,-1.78405 5.6079,-3.24566 0.7673,-3.64826 0.4602,-7.62946 -0.077,-11.38257 -0.1703,-1.19013 -2.6078,-3.0658 -3.6833,-2.86743 -1.4238,0.26251 -2.655,2.15869 -3.7065,3.55102 -0.4048,0.53589 -0.034,1.62122 -0.1113,2.44745 -0.2167,2.31787 0.8053,5.62891 -3.1436,5.50293 -3.8777,-0.12372 -2.8741,-3.44958 -2.9125,-5.72998 m 0,0 c -0.1088,-6.49151 -0.037,-12.98663 0.018,-19.47986 m 0,0 c 0.026,-3.09314 -1.3586,-4.52637 -4.5115,-4.60815 m 49.1048,-9.5661 c 0,0 -0.109,0.0568 0,0 z"
   id="path2"
   style="fill:none;stroke:#ffffff;stroke-width:7.55906;stroke-dasharray:none;stroke-opacity:1"
   sodipodi:nodetypes="cssccssccscccccccssssssssccsssssccssscssssccccsssssccccssssssscssssssscssssssssscscccccccccccccccccssccccccccccccsssssssssssccccccc" />

<path
   fill="#D74E1D"
   opacity="1"
   stroke="none"
   d="m 366.55424,669.88084 c -4.5438,19.14978 -9.51349,37.97406 -14.19382,56.87006 -1.1969,4.83228 0.80569,7.2984 5.87509,8.56445 10.14105,2.53254 20.29883,4.99805 31.02481,7.63257 -2.33691,9.45093 -4.54773,18.39179 -6.72656,27.20343 -13.97552,-1.96979 -27.57642,-3.91162 -41.18484,-5.79895 -19.39686,-2.69012 -38.80307,-5.31329 -58.19828,-8.0152 -18.42276,-2.56634 -36.83651,-5.19744 -55.25424,-7.80004 -0.0643,-7.39344 0.17984,-14.80561 -0.26964,-22.17554 -0.58232,-9.5481 -1.74698,-19.05976 -2.60235,-28.59235 -0.42922,-4.78338 -0.43422,-9.62445 -1.17548,-14.35412 -0.65019,-4.14869 -3.18477,-7.03791 -7.80672,-6.87183 -5.77908,0.20752 -11.56858,0.4903 -17.31541,1.10034 -3.78595,0.40186 -6.9298,4.66303 -6.65468,9.28876 0.5484,9.22027 1.51242,18.41547 2.28366,27.62286 0.42633,5.08954 0.80995,10.18256 1.2742,16.04956 -5.69569,0.62354 -11.52543,1.39319 -17.37901,1.87018 -7.74101,0.63068 -15.50888,0.93396 -23.2484,1.57953 -3.17726,0.26508 -2.93544,-1.70532 -3.00029,-3.69733 -0.32905,-10.10687 -0.63537,-20.21454 -1.006,-30.31994 -0.29138,-7.94464 -0.61998,-15.88855 -1.01588,-23.82856 -0.3107,-6.23089 -2.85788,-8.64508 -9.05141,-8.68603 -5.83218,-0.0385 -11.66574,-0.0726 -17.49704,0.009 -7.5326,0.10608 -11.5914,4.00262 -11.34837,11.38989 0.50223,15.26587 1.26918,30.52295 1.54614,46.26648 -2.13398,-0.0573 -3.88686,-0.59741 -5.68217,-1.26263 -0.14679,-0.42603 -0.28201,-0.70008 -0.81888,-1.30652 -10.292159,-9.19544 -22.205516,-10.29517 -34.911479,-9.03003 5.67067,-5.74756 12.551659,-8.12653 20.352692,-8.45325 -0.112656,-0.63672 -0.225311,-1.27343 -0.337967,-1.91021 -7.534653,0.49176 -15.069313,0.98352 -22.816658,1.48919 -0.283661,-5.9162 -1.091896,-12.3363 -7.306465,-16.66797 -0.379048,-0.46154 -0.675099,-0.59594 -1.109406,-0.78064 -0.288315,-0.14001 -0.492664,-0.10998 -0.697021,-0.0799 0.128402,0.19989 0.256809,0.39972 0.443229,0.82367 0.178841,0.51434 0.345982,0.7749 0.683732,1.38794 0.783882,5.44617 1.44347,10.51013 2.103057,15.57403 -0.5027,0.15125 -1.005405,0.30243 -1.50811,0.45368 -2.790126,-8.38642 -7.446792,-14.65021 -16.903362,-15.58161 5.967281,4.54084 9.714344,10.14808 10.059219,17.51801 -5.721614,-4.47699 -10.891178,-9.39844 -16.871471,-12.9577 -6.120346,-3.64258 -13.205751,-4.67462 -20.489286,-2.91626 8.138294,2.43286 15.78652,5.52313 22.398473,13.40619 -9.199943,-2.63996 -16.954477,-4.96729 -24.769534,-7.06971 -4.76809,-1.28265 -9.6292868,-2.21923 -14.44867299,-3.31128"
   id="path4"
   style="fill:none;stroke:#ffffff;stroke-width:7.55905512;stroke-dasharray:none;stroke-opacity:1"
   sodipodi:nodetypes="cssccsscssssssscsssssscsccccccccccccccccsccsc" />












































<path
   fill="#D74E1D"
   opacity="1"
   stroke="none"
   d="m 1199.6342,798.47856 c -0.793,-0.3966 -126.8035,-23.26813 -127.9796,-23.79578 -0.8554,-0.25983 -1.3276,-0.38861 -1.7997,-0.5174 0,0 -0.1566,-0.0883 -0.5357,-0.2489 -15.3868,-3.22943 -30.3903,-6.31921 -45.4037,-9.36114 -15.2883,-3.09766 -30.58624,-6.14826 -45.87994,-9.21942 l -0.24958,-1.70624 c 5.8935,-1.36523 11.78705,-2.73047 18.4307,-4.26947 -5.79263,-3.10504 -11.56156,-2.17505 -16.84714,-1.57697 -5.40448,0.61145 -10.60577,3.01795 -15.89606,4.63874 l -1.1499,-1.51886 c 4.81226,-4.39197 9.62445,-8.78394 14.7605,-13.47138 -7.95813,0.53937 -13.75134,5.04181 -19.8811,9.35016 -3.05103,-6.96075 -6.71985,-12.62158 -15.01465,-14.29053 7.46264,8.82898 8.47095,11.01221 7.68921,16.16224 -9.38733,-8.71137 -14.86432,-10.71833 -21.13141,-8.06482 3.39728,1.75622 7.05951,3.64941 10.72168,5.5426 -0.19635,0.45605 -0.39264,0.91205 -0.58899,1.3681 -9.10455,-1.80878 -18.21778,-3.5755 -27.31195,-5.43512 -18.19782,-3.72119 -36.23371,-8.95434 -55.08338,-3.36249 -5.643,1.67402 -11.68133,2.01557 -17.83612,3.01594 -0.63409,-3.85468 -1.16308,-7.07038 -1.71716,-10.43879 1.1922,-0.45782 2.06952,-0.97473 3.00464,-1.12054 2.94842,-0.45966 5.92871,-0.71387 8.87805,-1.16852 5.44525,-0.83942 7.45825,-2.95422 7.11475,-8.29626 -0.52338,-8.14032 -1.33423,-16.26557 -2.19104,-24.37946 -0.37513,-3.55267 -2.28363,-6.13794 -6.206,-5.67639 -3.79803,0.4469 -5.88372,2.79816 -5.52307,6.86883 0.37915,4.28003 0.54498,8.58899 1.14697,12.83673 0.89936,6.34589 -0.12994,7.23322 -7.0736,5.2602 -0.84821,-8.17871 -1.38416,-16.49872 -2.70008,-24.69355 -0.64862,-4.03906 0.82001,-5.12176 4.21161,-5.39062 4.31567,-0.3421 8.62665,-0.74377 12.94232,-1.08545 7.65125,-0.60571 9.97992,-3.1156 9.37427,-10.914 -0.8252,-10.62482 -1.93591,-21.22736 -2.91541,-31.84033 -0.51708,-5.6026 -3.35211,-8.57288 -7.90576,-8.25403 -4.53155,0.31732 -7.55438,4.35815 -7.0495,9.68524 0.8064,8.50818 1.73133,17.00513 2.64411,25.87586 -2.8584,0.30114 -5.3313,0.43487 -7.75812,0.84289 -5.6734,0.95392 -5.66168,0.84076 -5.97266,-5.0307 -0.36828,-6.95422 -0.78332,-13.93512 -1.77954,-20.81744 -0.78045,-5.39215 -2.98761,-6.07953 -10.72296,-5.41016 -4.72717,0.40912 -5.7525,3.43365 -5.71411,7.22144 0.0354,3.48993 0.45825,6.97851 0.76825,10.46258 1.19226,13.40192 2.41077,26.80145 3.61218,40.20252 0.22345,2.49316 0.1377,4.89135 -3.22302,4.99078 -3.43707,0.10168 -6.87946,0.0226 -10.47107,0.0226 -0.50561,-8.01758 -0.94348,-15.46216 -1.45459,-22.90167 -0.39514,-5.75226 -3.677,-9.14014 -8.6123,-9.02118 -4.8396,0.11658 -8.58142,4.21295 -8.29786,9.75678 0.45777,8.94793 1.80677,17.87915 1.77704,26.81408 -0.0242,7.26489 4.13489,13.08521 13.93592,11.12171 5.73358,-1.14875 11.7185,-1.0423 18.11981,-1.54175 0.76282,8.38769 1.39319,16.48852 2.28369,24.56067 0.38043,3.44842 -0.99744,4.72461 -4.25012,5.2254 -12.34217,1.8999 -24.65741,3.97559 -36.97754,6.01721 -35.9574,5.95874 -71.91229,11.93286 -107.86817,17.90094 -0.33978,-1.57165 -1.07141,-3.17254 -0.95697,-4.71039 0.86823,-11.66815 2.29523,-23.30859 2.75452,-34.98883 0.34021,-8.65332 -0.0969,-17.39428 -0.94842,-26.02118 -0.83197,-8.4295 -2.81739,-9.92761 -11.253,-10.75128 -3.1408,-0.30676 -6.36737,0.0322 -9.45977,-0.48816 -5.81281,-0.9779 -8.32831,2.18036 -10.44513,6.89569 -4.63898,10.33387 -6.00708,21.25769 -6.78858,32.37598 -0.92407,13.14557 -2.07202,26.27545 -3.14276,39.66022 -2.83874,0 -5.45111,0.19678 -8.02472,-0.0352 -9.58441,-0.86365 -19.14495,-2.01428 -28.73822,-2.74603 -3.73504,-0.28504 -4.10553,-1.74542 -3.76062,-5.13556 1.44513,-14.20599 2.78394,-28.43768 3.46442,-42.69324 0.1275,-2.6726 -2.27539,-6.58844 -4.66046,-8.03589 -5.82209,-3.53332 -12.60492,-4.26648 -19.18775,-2.09179 -4.86261,1.60632 -7.28863,5.6643 -7.79699,10.6803 -1.79065,17.66821 -3.49652,35.34491 -5.67658,53.40844 -8.44061,-0.69232 -16.37286,-0.92169 -24.18304,2.08093 -0.14081,-0.14636 -0.42792,-0.43371 -0.31983,-0.75408 4.19452,-5.69568 9.74915,-7.98114 16.38849,-8.18323 -7.21417,-2.46002 -13.9992,-1.96521 -20.33038,2.66473 -0.0943,-0.0944 -0.28339,-0.2829 -0.25525,-0.64074 2.55933,-4.01197 5.09052,-7.66614 7.60803,-11.30054 -6.21399,-0.13031 -9.7301,4.63025 -12.72967,8.14074 -5.70185,-3.70275 -11.00721,-7.14801 -16.46247,-10.73669 -0.44275,-0.14282 -0.73559,-0.14215 -1.02844,-0.14154 0.25333,0.25293 0.50662,0.50586 0.91342,1.05469 5.07047,4.79968 9.45035,9.64465 10.94065,16.90973 -14.78763,-10.69062 -19.13172,-12.24176 -31.46961,-10.75568 14.1185,3.2063 23.46335,10.24292 27.10205,23.57697 -10.52984,-10.78168 -23.49945,-11.25617 -37.25287,-9.06196 7.59067,0.50599 14.719,2.11866 20.185,8.18573 -31.12823,-4.33007 -62.25647,-8.66015 -93.95798,-13.06994 2.10602,-8.59668 3.98584,-16.26984 6.07901,-24.81397 4.89911,1.06 9.40351,1.96735 13.8732,3.02167 4.08667,0.96393 7.94049,0.04 8.98679,-3.99866 2.57809,-9.95147 4.77725,-20.04412 6.3197,-30.20294 0.79529,-5.23779 -1.77447,-7.18664 -7.87369,-7.87249 -4.64492,-0.52234 -7.12042,1.87011 -8.07107,6.27325 -1.19443,5.5321 -2.66645,11.00879 -3.70954,16.56744 -0.70446,3.75415 -2.26852,4.95709 -6.22763,2.77216 3.25824,-13.30359 6.66285,-26.65228 9.72919,-40.07831 0.86441,-3.78479 2.59689,-4.39258 5.98889,-3.56543 7.92386,1.93219 15.90399,3.63373 23.86133,5.42859 3.92578,0.88544 8.0155,0.64307 9.11099,-3.72144 2.50516,-9.98107 4.33646,-20.1347 6.31162,-30.24353 0.65197,-3.33685 -1.19751,-5.41894 -4.2442,-6.40405 -6.99048,-2.26025 -10.75492,-0.0942 -12.38218,7.02258 -1.3966,6.10785 -2.78405,12.21784 -4.27337,18.75623 -6.98792,-1.5885 -13.35135,-3.0351 -20.02243,-4.55158 2.0329,-8.32458 4.12353,-15.86322 5.64569,-23.51495 0.86661,-4.35651 0.94562,-8.89233 1.11786,-13.35748 0.15014,-3.89215 -2.74005,-4.90833 -5.87775,-5.47345 -3.28238,-0.59113 -7.0253,-2.88245 -9.20731,1.63708 -2.08215,4.31257 -4.32116,8.68323 -5.48483,13.28296 -6.32825,25.01496 -12.41971,50.09095 -18.39566,75.19281 -0.9927,4.16974 -2.59848,5.47888 -6.84723,4.16651 -5.37192,-1.65931 -10.92639,-2.72772 -17.03897,-4.2049 1.17362,-4.72296 2.48482,-9.28338 3.42566,-13.919 2.59004,-12.76145 9.02019,-22.04015 9.08882,-36.61135 0.008,-1.7326 -5.35495,-20.14618 -17.23785,-1.51463"
   id="path49"
   style="fill:none;stroke:#ffffff;stroke-width:7.55906;stroke-dasharray:none;stroke-opacity:1"
   sodipodi:nodetypes="ccccscccscccccccccssccssssssscssssssscsssssssscssssscscscssssssscsssssssccccccccccccccccccsssssscsssssssccsssscsscssc" />


<path
   fill="#D74E1D"
   opacity="1"
   stroke="none"
   d="m 1212.5065,722.4931 c -20.8333,-0.80528 -1.6943,86.23506 -8.5779,70.96738 -2.9436,-6.52887 1.3574,7.23945 -7.774,5.21406 6.3656,-0.26482 9.402,-12.75067 8.0962,-21.21105 l 3.7533,-69.89991 c 0.1065,-6.32568 -0.055,-12.65692 0.1133,-18.9801 0.096,-3.58619 -1.2483,-5.35816 -4.9338,-5.06525 -0.3306,0.0263 -0.6657,-3e-4 -0.9986,-0.008 -10.9926,-0.26325 -14.3293,-5.14728 -10.3026,-15.5893 0.5329,-1.38159 2.7426,-2.68853 4.3048,-2.86126 0.7879,-0.0872 2.0924,2.34765 2.732,3.82837 0.4244,0.98321 0.1875,2.30676 0.069,3.45977 -0.4004,3.90015 1.3181,5.2959 5.1917,5.297 3.8517,10e-4 5.0003,-1.7489 4.7936,-5.20502 -0.1091,-1.82409 0.073,-3.66412 0,-5.49249 -0.1187,-3.16254 1.2859,-4.52331 4.4925,-4.44006 3.1529,0.0818 4.5375,1.51501 4.5115,4.60815 -0.055,6.49323 -0.1269,12.98835 -0.018,19.47986 0.038,2.2804 -0.9652,5.60626 2.9125,5.72998 3.9489,0.12598 2.9269,-3.18506 3.1436,-5.50293 0.077,-0.82623 -0.2935,-1.91156 0.1113,-2.44745 1.0515,-1.39233 2.2827,-3.28851 3.7065,-3.55102 1.0755,-0.19837 3.513,1.6773 3.6833,2.86743 0.5367,3.75311 0.8438,7.73431 0.077,11.38257 -0.3074,1.46161 -3.6234,3.19732 -5.6079,3.24566 -9.697,0.23615 -8.9156,-0.18066 -8.9496,9.66162 -0.01,2.331 0.056,4.66517 -0.044,6.99232 -0.1903,4.42864 2.2105,5.10095 5.7665,4.03076 l 24.101,-6.25109 z"
   id="path52"
   style="fill:none;stroke:#ffffff;stroke-width:7.55905512;stroke-dasharray:none;stroke-opacity:1"
   sodipodi:nodetypes="cscccsscsssssssssssssssssssccc" />



<path
   fill="#D74E1D"
   opacity="1"
   stroke="none"
   d="m 1757.5014,698.43544 c 0.067,8.92865 1.4031,-6.12495 1.1201,3.36602 z"
   id="path56"
   style="fill:none;stroke:#ffffff;stroke-width:7.55905512;stroke-dasharray:none;stroke-opacity:1"
   sodipodi:nodetypes="ccc" />


<path
   fill="#F17C1F"
   opacity="1"
   stroke="none"
   d="m 1683.8717,703.82652 c -2.304,-0.57397 -4.5691,-1.49768 -8.3691,-3.0473 4.3576,-1.74396 7.504,-3.00317 11.0307,-4.24567 -0.6205,2.3255 -1.6216,4.6344 -2.6616,7.29297 z"
   id="path59"
   style="fill:none;stroke:#ffffff;stroke-width:7.55905512;stroke-dasharray:none;stroke-opacity:1" />




























<path
   fill="#D74E1D"
   opacity="1"
   stroke="none"
   d="m 1250.0035,708.51976 c 0.1952,-0.14868 0.3861,-0.30457 0.5769,-0.46039 -0.1063,0.13373 -0.2126,0.26746 -0.4565,0.42127 -0.1379,0.0201 -0.1249,0.032 -0.1204,0.0391 z"
   id="path88"
   style="fill:none;stroke:#ffffff;stroke-width:7.55905512;stroke-dasharray:none;stroke-opacity:1" />









<path
   fill="#451A19"
   opacity="1"
   stroke="none"
   d="m 1262.5225,652.96922 c -0.054,0.0284 0.055,-0.0284 0,0 z"
   id="path98"
   style="fill:none;stroke:#ffffff;stroke-width:7.55905512;stroke-dasharray:none;stroke-opacity:1" />
<path
   fill="#451A19"
   opacity="1"
   stroke="none"
   d="m 1264.3184,650.91063 c -0.2003,0.0535 -0.6001,-0.12018 -0.8035,-0.48352 0.3322,-0.041 0.4682,0.10773 0.8035,0.48352 z"
   id="path99"
   style="fill:none;stroke:#ffffff;stroke-width:7.55905512;stroke-dasharray:none;stroke-opacity:1" />
<path
   fill="#D74E1D"
   opacity="1"
   stroke="none"
   d="m 1274.898,704.73534 c 0.071,0.16302 -0.054,0.49054 -0.4131,0.94897 -0.084,-0.17419 0.066,-0.47943 0.4131,-0.94897 z"
   id="path100"
   style="fill:none;stroke:#ffffff;stroke-width:7.55905512;stroke-dasharray:none;stroke-opacity:1" />
<path
   fill="#D74E1D"
   opacity="1"
   stroke="none"
   d="m 1239.9716,707.53014 c -0.028,0.0266 -0.2105,-0.1709 -0.2105,-0.1709 0,0 0.205,-0.0264 0.2476,0.0306 0.043,0.057 -0.01,0.1137 -0.037,0.14032 z"
   id="path101"
   style="fill:none;stroke:#ffffff;stroke-width:7.55905512;stroke-dasharray:none;stroke-opacity:1" />














<path
   fill="#D74E1D"
   opacity="1"
   stroke="none"
   d="m 107.94789,723.92589 c -4.67121,-1.07379 -9.384859,-2.27277 -14.098511,-3.47174 0.09408,-0.35919 0.188149,-0.71833 0.282227,-1.07752 4.037755,1.08252 8.075494,2.16498 12.740724,3.42475 0.79357,0.42443 0.92879,0.69848 1.07556,1.12451 z"
   id="path116"
   style="fill:none;stroke:#ffffff;stroke-width:7.55905512;stroke-dasharray:none;stroke-opacity:1" />


<path
   fill="#451A19"
   opacity="1"
   stroke="none"
   d="m 60.687953,687.78618 c -0.128418,-0.19989 -0.256825,-0.39972 -0.385227,-0.59961 0.204357,-0.0301 0.408706,-0.0601 0.598854,0.16815 -0.01421,0.2583 -0.213619,0.43146 -0.213627,0.43146 z"
   id="path119"
   style="fill:none;stroke:#ffffff;stroke-width:7.55905512;stroke-dasharray:none;stroke-opacity:1" />
<path
   fill="#451A19"
   opacity="1"
   stroke="none"
   d="m 60.985545,687.52476 c 0.448509,-0.0736 0.74456,0.0608 1.123608,0.52234 -0.01481,0.33863 -0.16692,0.46979 -0.561394,0.78492 -0.455822,-0.0469 -0.622963,-0.30744 -0.801796,-0.82178 -0.058,-0.22406 0.141411,-0.39722 0.239582,-0.48548 z"
   id="path120"
   style="fill:none;stroke:#ffffff;stroke-width:7.55905512;stroke-dasharray:none;stroke-opacity:1" />















































































<path
   fill="#F17C1F"
   opacity="1"
   stroke="none"
   d="m 1311.9017,619.14452 c -0.518,4.92755 -1.0785,9.53234 -1.639,14.1372 -0.7426,-0.0978 -1.4852,-0.19555 -2.2276,-0.29333 0.01,-5.10285 0.1117,-10.19074 3.2501,-14.78943 0.019,-0.028 0.3058,0.0629 0.3944,0.16302 0.1023,0.11573 0.1233,0.30341 0.2221,0.78254 z"
   id="path200"
   style="fill:none;stroke:#ffffff;stroke-width:7.55905512;stroke-dasharray:none;stroke-opacity:1" />






<path
   fill="#451A19"
   opacity="1"
   stroke="none"
   d="m 507.00879,756.49681 c -0.35825,-0.13483 -0.61154,-0.38776 -0.86487,-0.64069 0.29285,-6.1e-4 0.5857,-10e-4 1.02844,0.14155 0.14988,0.14343 -0.0586,0.38098 -0.16357,0.49914 z"
   id="path207"
   style="fill:none;stroke:#ffffff;stroke-width:7.55905512;stroke-dasharray:none;stroke-opacity:1" />

















<path
   fill="#F17C1F"
   opacity="1"
   stroke="none"
   d="m 1237.021,712.50169 c 0.021,-0.0206 0.2059,0.16248 0.2059,0.16248 0,0 -0.1926,0.0189 -0.2297,-0.0391 -0.037,-0.058 0,-0.10273 0.024,-0.12342 z"
   id="path225"
   style="fill:none;stroke:#ffffff;stroke-width:7.55905512;stroke-dasharray:none;stroke-opacity:1" />
<path
   fill="#F17C1F"
   opacity="1"
   stroke="none"
   d="m 1247.0186,712.54161 c 0.019,0.0209 -0.1551,0.21124 -0.1551,0.21124 0,0 -0.019,-0.19329 0.038,-0.23175 0.057,-0.0385 0.098,-3.6e-4 0.1173,0.0205 z"
   id="path226"
   style="fill:none;stroke:#ffffff;stroke-width:7.55905512;stroke-dasharray:none;stroke-opacity:1" />

















































































































































</svg>
