<?xml version="1.0" encoding="UTF-8" standalone="no"?>
<!-- Generator: Adobe Illustrator 27.5.0, SVG Export Plug-In . SVG Version: 6.00 Build 0)  -->

<svg
   version="1.1"
   x="0px"
   y="0px"
   viewBox="0 0 750 500"
   style="enable-background:new 0 0 750 500;"
   xml:space="preserve"
   id="svg179"
   sodipodi:docname="zzz.svg"
   inkscape:version="1.3.2 (091e20e, 2023-11-25, custom)"
   xmlns:inkscape="http://www.inkscape.org/namespaces/inkscape"
   xmlns:sodipodi="http://sodipodi.sourceforge.net/DTD/sodipodi-0.dtd"
   xmlns:xlink="http://www.w3.org/1999/xlink"
   xmlns="http://www.w3.org/2000/svg"
   xmlns:svg="http://www.w3.org/2000/svg"><defs
   id="defs179" /><sodipodi:namedview
   id="namedview179"
   pagecolor="#ffffff"
   bordercolor="#666666"
   borderopacity="1.0"
   inkscape:showpageshadow="2"
   inkscape:pageopacity="0.0"
   inkscape:pagecheckerboard="0"
   inkscape:deskcolor="#d1d1d1"
   inkscape:zoom="1.181"
   inkscape:cx="403.89501"
   inkscape:cy="327.26503"
   inkscape:window-width="2560"
   inkscape:window-height="1377"
   inkscape:window-x="-8"
   inkscape:window-y="-8"
   inkscape:window-maximized="1"
   inkscape:current-layer="svg179"
   showgrid="false" />
<g
   id="BACKGROUND"
   style="display:none;fill:#000000;fill-opacity:1;stroke:none;stroke-width:3.00094;stroke-dasharray:none;stroke-opacity:1">
	<rect
   x="-0.001"
   style="display:inline;fill:#000000;fill-opacity:1;stroke:none;stroke-width:3.00094;stroke-dasharray:none;stroke-opacity:1"
   width="750"
   height="500"
   id="rect1"
   y="0" />
</g>
<g
   id="OBJECTS"
   style="fill:none;fill-opacity:1;stroke:#ffffff;stroke-width:3;stroke-dasharray:none;stroke-opacity:1"
   transform="translate(2.4042872e-8,50.89253)">
	<g
   id="g179"
   style="fill:none;fill-opacity:1;stroke:#ffffff;stroke-width:3;stroke-dasharray:none;stroke-opacity:1">
		<defs
   id="defs1">
			<rect
   id="SVGID_1_"
   x="-0.001"
   width="750"
   height="500"
   y="0" />
		</defs>
		<clipPath
   id="SVGID_00000050637279938787680780000017378794270176435852_">
			<use
   xlink:href="#SVGID_1_"
   style="overflow:visible"
   id="use1" />
		</clipPath>
		<g
   style="display:inline;fill:none;fill-opacity:1;stroke:#ffffff;stroke-width:3.00094488;stroke-dasharray:none;stroke-opacity:1"
   clip-path="url(#SVGID_00000050637279938787680780000017378794270176435852_)"
   id="g12">
			
			
			<path
   style="fill:none;fill-opacity:1;stroke:#ffffff;stroke-width:3.00094488;stroke-dasharray:none;stroke-opacity:1"
   d="M 785.079,224.55 -44.941,250 -15.011,138.75 c 0,0 30.27,-23.04 56.45,-36.89 12.73,-6.74 24.49,-11.31 31.34,-10 10.81,2.06 31.97,16.6 52.26,30.19 19.03,12.76 37.29,24.68 45.5,24.68 9.87,0 25.14,-9.33 39.93,-17.13 10.62,-5.6 20.98,-10.42 28.91,-10.42 8.73,0 25.32,12 42.71,24.95 20.33,15.12 41.77,31.53 53.06,31.53 10.88,0 62.35,-30.65 113.95,-60.13 47.78,-27.31 95.68,-53.6 111.51,-53.6 13.89,0 37.37,18.28 61.59,39.43 33.2,28.98 67.81,63.33 81.07,63.33 22.95,0 74.83,-68.84 74.83,-68.84 z"
   id="path3" />
			
			
			
			
			
			
			
			
			
		</g>
		<g
   style="display:inline;fill:none;fill-opacity:1;stroke:#ffffff;stroke-width:3.00094488;stroke-dasharray:none;stroke-opacity:1"
   clip-path="url(#SVGID_00000050637279938787680780000017378794270176435852_)"
   id="g73">
			
			
			
			
			
		<path
   style="fill:none;stroke:#ffffff;stroke-width:3.00094;stroke-linecap:butt;stroke-linejoin:miter;stroke-dasharray:none;stroke-opacity:1"
   d="m 305.66443,212.4308 c 22.99994,-28.38662 32.53328,-41.51567 42.31743,-29.7582 16.7707,20.15312 21.45759,29.02122 22.07825,29.61915 m 355.99777,-8.8447 c -19.61511,-23.52494 -18.38944,-41.92433 -48.22075,-1.83253"
   id="path1"
   sodipodi:nodetypes="csccc"
   transform="translate(-2.4042872e-8,-50.89253)" /></g>
		
		<g
   style="display:inline;fill:none;fill-opacity:1;stroke:#ffffff;stroke-width:3;stroke-dasharray:none;stroke-opacity:1"
   clip-path="url(#SVGID_00000050637279938787680780000017378794270176435852_)"
   id="g178">
			
			
			
			
			
			
			
			
			
				
			
			
			
			
			
			
			
			
			
			
			
			
				
		</g>
	</g>
</g>
</svg>
