<?xml version="1.0" encoding="UTF-8" standalone="no"?>
<!-- Created with Inkscape (http://www.inkscape.org/) -->

<svg
   width="800"
   height="800"
   viewBox="0 0 211.66666 211.66667"
   version="1.1"
   id="svg1"
   inkscape:version="1.3.2 (091e20e, 2023-11-25, custom)"
   sodipodi:docname="cannon2.svg"
   xmlns:inkscape="http://www.inkscape.org/namespaces/inkscape"
   xmlns:sodipodi="http://sodipodi.sourceforge.net/DTD/sodipodi-0.dtd"
   xmlns="http://www.w3.org/2000/svg"
   xmlns:svg="http://www.w3.org/2000/svg">
  <sodipodi:namedview
     id="namedview1"
     pagecolor="#ffffff"
     bordercolor="#666666"
     borderopacity="1.0"
     inkscape:showpageshadow="2"
     inkscape:pageopacity="0.0"
     inkscape:pagecheckerboard="0"
     inkscape:deskcolor="#d1d1d1"
     inkscape:document-units="mm"
     inkscape:zoom="1.0520974"
     inkscape:cx="397.30163"
     inkscape:cy="561.25984"
     inkscape:window-width="2560"
     inkscape:window-height="1377"
     inkscape:window-x="-8"
     inkscape:window-y="-8"
     inkscape:window-maximized="1"
     inkscape:current-layer="layer1" />
  <defs
     id="defs1" />
  <g
     inkscape:label="Layer 1"
     inkscape:groupmode="layer"
     id="layer1">
    <path
       d="m 177.56967,57.17265 -10.99964,5.728229 3.43711,6.600114 11.00005,-5.729056 z m -20.27246,4.032415 -44.19368,23.01627 V 105.66127 L 166.08055,78.071012 Z M 91.080265,81.324974 73.416024,98.989632 v 27.810598 h 32.246096 v -8.73001 c -2.71694,1.85457 -5.992405,2.94225 -9.508465,2.94225 -9.31706,0 -16.949871,-7.63281 -16.949871,-16.94987 0,-9.31705 7.632401,-16.949866 16.949871,-16.949866 3.51606,0 6.791525,1.088099 9.508465,2.94225 v -8.729597 z m 5.07339,13.229167 c -5.2958,0 -9.50846,4.213076 -9.50846,9.508459 0,5.2958 4.21266,9.50847 9.50846,9.50847 5.295395,0 9.508465,-4.21267 9.508465,-9.50847 0,-5.295383 -4.21307,-9.508459 -9.508465,-9.508459 z m -30.179038,14.211019 -31.143939,16.2202 8.78334,16.86553 22.360599,-11.64497 z"
       style="fill:#000000;stroke-width:2.64583333;stroke:#ffffff;stroke-opacity:1;stroke-dasharray:none"
       id="path1" />
  </g>
</svg>
