<?xml version="1.0" encoding="UTF-8" standalone="no"?>
<!-- Created with Inkscape (http://www.inkscape.org/) -->

<svg
   width="1280"
   height="800"
   version="1.1"
   viewBox="0 0 1280000000 800000000"
   xml:space="preserve"
   id="svg62"
   sodipodi:docname="scene1.svg"
   inkscape:version="1.3.2 (091e20e, 2023-11-25, custom)"
   xmlns:inkscape="http://www.inkscape.org/namespaces/inkscape"
   xmlns:sodipodi="http://sodipodi.sourceforge.net/DTD/sodipodi-0.dtd"
   xmlns="http://www.w3.org/2000/svg"
   xmlns:svg="http://www.w3.org/2000/svg"><defs
     id="defs62" /><sodipodi:namedview
     id="namedview62"
     pagecolor="#ffffff"
     bordercolor="#666666"
     borderopacity="1.0"
     inkscape:showpageshadow="2"
     inkscape:pageopacity="0.0"
     inkscape:pagecheckerboard="0"
     inkscape:deskcolor="#d1d1d1"
     inkscape:zoom="0.93854167"
     inkscape:cx="670.18868"
     inkscape:cy="486.3929"
     inkscape:window-width="2560"
     inkscape:window-height="1377"
     inkscape:window-x="-8"
     inkscape:window-y="-8"
     inkscape:window-maximized="1"
     inkscape:current-layer="g4"
     showgrid="false" /><rect
     x="3109952"
     y="3109952"
     width="1273780096"
     height="793780096"
     stroke="#ffffff"
     stroke-linecap="square"
     stroke-linejoin="round"
     stroke-width="6.2199e+06"
     style="display:inline;paint-order:stroke fill markers"
     id="rect1"
     sodipodi:insensitive="true" /><g
     id="g4"
     transform="translate(-320000000,-43005138)"><g
       id="text70"
       style="font-size:3.2e+07px;line-height:1.25;stroke-width:1e+06"
       aria-label="A cosmic event unleashes &#10;asteroids racing toward Earth."><path
         style="font-family:'8-bit HUD';-inkscape-font-specification:'8-bit HUD';text-align:center;text-anchor:middle;fill:#ffffff"
         d="m 521703140,692303740 v -32000000 h 6390630 v -6390620 h 25609370 v 6390620 h -19203120 v 6406250 h 19203120 v -6406250 h 6390630 v 32000000 h -6390630 v -19187500 h -19203120 v 19187500 z m 70375000,0 v -6390620 h -6390620 v -19203130 h 6390620 v -6406250 h 25609380 v 6406250 h -19203130 v 19203130 h 19203130 v 6390620 z m 57593750,-6390620 v -19203130 h 6406250 v 19203130 z m -19203120,6390620 v -6390620 h -6390630 v -19203130 h 6390630 v -6406250 h 19203120 v 6406250 h -12796870 v 19203130 h 12796870 v 6390620 z m 32000000,0 v -6390620 h 19187500 v -6406250 h -19187500 v -12796880 h 6390630 v -6406250 h 25609370 v 6406250 h -19203120 v 6406250 h 19203120 v 12796880 h -6406250 v 6390620 z m 57578130,-19187500 v -6406250 h 6406250 v 6406250 z m -19187500,19187500 v -32000000 h 19187500 v 6406250 h -6390630 v 25593750 z m 32000000,0 v -25593750 h -6406250 v -6406250 h 12796870 v 32000000 z m 12796860,0 v -6390620 h 6390630 v -19203130 h -6390630 v -6406250 h 25593750 v 6406250 h -6406250 v 19203130 h 6406250 v 6390620 z m 38390630,0 v -6390620 h -6390630 v -19203130 h 6390630 v -6406250 h 25609370 v 6406250 h -19203120 v 19203130 h 19203120 v 6390620 z m 51187520,0 v -32000000 h 32000000 v 6406250 h -19203130 v 6406250 h 12796880 v 6390630 h -12796880 v 6406250 h 19203130 v 6390620 z m 51187460,0 v -6390620 h -6406250 v -6406250 h -6390620 v -19203130 h 12796870 v 19203130 h 12796880 v 6406250 h -6406250 v 6390620 z m 12796880,-12796870 v -19203130 h 6406250 v 19203130 z m 12796900,12796870 v -32000000 h 32000000 v 6406250 h -19203120 v 6406250 h 12796870 v 6390630 h -12796870 v 6406250 h 19203120 v 6390620 z m 63984350,0 v -25593750 h 6406250 v 25593750 z m -25593750,0 v -32000000 h 25593750 v 6406250 h -12796880 v 25593750 z m 44781280,0 v -25593750 h -6390630 v -6406250 h 25593800 v 6406250 h -6406300 v 25593750 z m 51187470,0 v -6390620 h -6390600 v -25609380 h 12796900 v 25609380 h 12796800 v 6390620 z m 19203100,-6390620 v -25609380 h 6406300 v 25609380 z m 38390700,6390620 v -25593750 h 6406200 v 25593750 z m -25593800,0 v -32000000 h 25593800 v 6406250 h -12796900 v 25593750 z m 38390600,0 v -32000000 h 12796900 v 25609380 h 19203100 v 6390620 z m 38390700,0 v -32000000 h 32000000 v 6406250 h -19203200 v 6406250 h 12796900 v 6390630 h -12796900 v 6406250 h 19203200 v 6390620 z m 38390600,0 v -25593750 h 6390600 v -6406250 h 19203100 v 6406250 h -12796900 v 6406250 h 12796900 v -6406250 h 6406300 v 25593750 h -6406300 v -12796870 h -12796900 v 12796870 z m 38390600,0 v -6390620 h 19187500 v -6406250 h -19187500 v -12796880 h 6390600 v -6406250 h 25609400 v 6406250 h -19203100 v 6406250 h 19203100 v 12796880 h -6406200 v 6390620 z m 38390600,0 v -32000000 h 12796900 v 12812500 h 12796900 v -12812500 h 6406200 v 32000000 h -6406200 v -12796870 h -12796900 v 12796870 z m 38390700,0 v -32000000 h 32000000 v 6406250 h -19203200 v 6406250 h 12796900 v 6390630 h -12796900 v 6406250 h 19203200 v 6390620 z m 38390500,0 v -6390620 h 19187500 v -6406250 h -19187500 v -12796880 h 6390700 v -6406250 h 25609300 v 6406250 h -19203100 v 6406250 h 19203100 v 12796880 h -6406200 v 6390620 z"
         id="path62" /><path
         style="font-family:'8-bit HUD';-inkscape-font-specification:'8-bit HUD';text-align:center;text-anchor:middle;fill:#ffffff"
         d="m 435312520,739187740 v -25593750 h 6390620 v -6406250 h 19203130 v 6406250 h -12796880 v 6406250 h 12796880 v -6406250 h 6406250 v 25593750 h -6406250 v -12796880 h -12796880 v 12796880 z m 38390620,0 v -6390630 h 19187500 v -6406250 h -19187500 v -12796870 h 6390630 v -6406250 h 25609370 v 6406250 h -19203120 v 6406250 h 19203120 v 12796870 h -6406250 v 6390630 z m 44781250,0 v -25593750 h -6390630 v -6406250 h 25593750 v 6406250 h -6406250 v 25593750 z m 25609370,0 v -32000000 h 32000000 v 6406250 h -19203120 v 6406250 h 12796870 v 6390620 h -12796870 v 6406250 h 19203120 v 6390630 z m 63984380,0 v -12796880 h 6406250 v 12796880 z m 0,-19187500 v -6406250 h 6406250 v 6406250 z m -25593750,19187500 v -32000000 h 25593750 v 6406250 h -12796880 v 6406250 h 12796880 v 6390620 h -12796880 v 12796880 z m 63984370,-6390630 v -19203120 h 6406250 v 19203120 z m -19203120,6390630 v -6390630 h -6390630 v -19203120 h 6390630 v -6406250 h 19203120 v 6406250 h -12796870 v 19203120 h 12796870 v 6390630 z m 32000000,0 v -6390630 h 6390620 v -19203120 h -6390620 v -6406250 h 25593750 v 6406250 h -6406250 v 19203120 h 6406250 v 6390630 z m 57593750,-6390630 v -19203120 h 6406250 v 19203120 z m -25593750,6390630 v -32000000 h 25593750 v 6406250 h -12796880 v 19203120 h 12796880 v 6390630 z m 38390620,0 v -6390630 h 19187500 v -6406250 h -19187500 v -12796870 h 6390630 v -6406250 h 25609370 v 6406250 h -19203120 v 6406250 h 19203120 v 12796870 h -6406250 v 6390630 z m 83171860,0 v -12796880 h 6406250 v 12796880 z m 0,-19187500 v -6406250 h 6406250 v 6406250 z m -25593750,19187500 v -32000000 h 25593750 v 6406250 h -12796870 v 6406250 h 12796870 v 6390620 h -12796870 v 12796880 z m 38390630,0 v -25593750 h 6390620 v -6406250 h 19203130 v 6406250 h -12796880 v 6406250 h 12796880 v -6406250 h 6406250 v 25593750 h -6406250 v -12796880 h -12796880 v 12796880 z m 44781250,0 v -6390630 h -6390630 v -19203120 h 6390630 v -6406250 h 25609370 v 6406250 h -19203120 v 19203120 h 19203120 v 6390630 z m 31999990,0 v -6390630 h 6390630 v -19203120 h -6390630 v -6406250 h 25593750 v 6406250 h -6406250 v 19203120 h 6406250 v 6390630 z m 57593750,0 v -25593750 h 6406250 v 25593750 z m -25593750,0 v -32000000 h 25593750 v 6406250 h -12796870 v 25593750 z m 44781250,0 v -6390630 h -6390620 v -19203120 h 6390620 v -6406250 h 25609410 v 6406250 h -19203160 v 19203120 h 12796880 v -6406250 h 6406280 v 12796880 z m 57578110,0 v -25593750 h -6390600 v -6406250 h 25593700 v 6406250 h -6406200 v 25593750 z m 51203100,-6390630 v -19203120 h 6406300 v 19203120 z m -19203100,6390630 v -6390630 h -6390600 v -19203120 h 6390600 v -6406250 h 19203100 v 6406250 h -12796800 v 19203120 h 12796800 v 6390630 z m 57593800,0 v -6390630 h 6406200 v 6390630 z m -6406300,-6390630 v -6406250 h 6406300 v 6406250 z m -12796800,6390630 v -6390630 h -6390700 v -25609370 h 12796900 v 25609370 h 6390600 v 6390630 z m 25609300,-6390630 v -25609370 h 6390700 v 25609370 z m 12796900,6390630 v -25593750 h 6390600 v -6406250 h 19203200 v 6406250 h -12796900 v 6406250 h 12796900 v -6406250 h 6406200 v 25593750 h -6406200 v -12796880 h -12796900 v 12796880 z m 63984400,0 v -12796880 h 6406300 v 12796880 z m 0,-19187500 v -6406250 h 6406300 v 6406250 z m -25593700,19187500 v -32000000 h 25593700 v 6406250 h -12796900 v 6406250 h 12796900 v 6390620 h -12796900 v 12796880 z m 63984300,-6390630 v -19203120 h 6406200 v 19203120 z m -25593800,6390630 v -32000000 h 25593800 v 6406250 h -12796900 v 19203120 h 12796900 v 6390630 z m 57578200,0 v -38390630 h 38390600 v 6390630 h -25593800 v 6406250 h 19203200 v 6406250 h -19203200 v 12796870 h 25593800 v 6390630 z m 44796800,0 v -25593750 h 6390600 v -6406250 h 19203200 v 6406250 h -12796900 v 6406250 h 12796900 v -6406250 h 6406200 v 25593750 h -6406200 v -12796880 h -12796900 v 12796880 z m 63984400,0 v -12796880 h 6406300 v 12796880 z m 0,-19187500 v -6406250 h 6406300 v 6406250 z m -25593700,19187500 v -32000000 h 25593700 v 6406250 h -12796800 v 6406250 h 12796800 v 6390620 h -12796800 v 12796880 z m 44781200,0 v -25593750 h -6390600 v -6406250 h 25593700 v 6406250 h -6406200 v 25593750 z m 25609400,0 v -32000000 h 12796800 v 12812500 h 12796900 v -12812500 h 6406300 v 32000000 h -6406300 v -12796880 h -12796900 v 12796880 z m 38390600,0 v -12796880 h 12796900 v 12796880 z"
         id="path63" /></g><rect
       style="fill:none;stroke:#ffffff;stroke-width:2.2374e+06;stroke-linecap:round;stroke-linejoin:round;stroke-dasharray:none;stroke-opacity:1;paint-order:stroke fill markers"
       id="rect71"
       width="1201090304"
       height="146316176"
       x="359454848"
       y="623746240" /><path
       d="m 1205617700,408836460 c 3024700,-131650 4269500,2808680 3423900,5303590 -845600,2494900 -6199000,2356410 -7648900,485100 -1450000,-1871320 284200,-5754310 4225000,-5788690 z"
       fill="#ffe19b"
       id="path175"
       style="stroke:#ffffff;stroke-width:984001;stroke-dasharray:none;stroke-opacity:1" /><path
       d="m 1348661600,431560310 a 3807034.6,3807034.6 0 0 1 3423800,5303590 c -721500,2513810 -6198900,2356410 -7648800,485100 -1450000,-1871320 306600,-5623930 4225000,-5788690 z"
       fill="#ffe19b"
       id="path176"
       style="stroke:#ffffff;stroke-width:984001;stroke-dasharray:none;stroke-opacity:1" /><path
       d="m 1280352400,492163410 a 3890705.7,3890705.7 0 0 1 -4357100,4710620 c -2602000,-142510 -3777100,-5484370 -2262700,-7369550 1514500,-1885190 5482100,-984490 6619800,2658930 z"
       fill="#cbe7f5"
       id="path177"
       style="stroke:#ffffff;stroke-width:984001;stroke-dasharray:none;stroke-opacity:1" /><path
       d="m 1258989700,537109300 a 3807034.6,3807034.6 0 0 1 2851900,5724280 c -1039800,2380680 -6457700,1555260 -7669400,-491350 -1211700,-2046600 892000,-5577070 4817500,-5232930 z"
       fill="#cbe7f5"
       id="path178"
       style="stroke:#ffffff;stroke-width:984001;stroke-dasharray:none;stroke-opacity:1" /><path
       d="m 1147363600,587600630 a 3807034.6,3807034.6 0 0 1 6368400,420090 c 1542500,2097010 -1899200,6354640 -4271900,6374010 -2372800,19370 -4362800,-3584640 -2096500,-6794100 z"
       fill="#ffe19b"
       id="path179"
       style="stroke:#ffffff;stroke-width:984001;stroke-dasharray:none;stroke-opacity:1" /><path
       d="m 1201219300,450484620 c 706900,-1585020 10265500,3172070 13499700,2776120 3234200,-395960 6560900,-5009650 8167100,-7219410 1606200,-2209750 8366600,-12140230 9565900,-11957500 1199400,182720 3376300,20615550 5070800,22270220 1694600,1654660 22613300,7676970 22713000,8411570 99600,734600 -20485600,16133820 -20777100,16935780 -291400,801970 -3004900,26668210 -3616300,26236530 -611300,-431680 -12088800,-14537230 -16877300,-15605310 -4788500,-1068080 -23753200,6749170 -24108100,5467870 -354900,-1281310 16635500,-25861140 16156500,-27161350 -479000,-1300210 -9958100,-19079200 -9794200,-20154520 z"
       fill="#ffe19b"
       id="path180"
       style="stroke:#ffffff;stroke-width:984001;stroke-dasharray:none;stroke-opacity:1" /><g
       fill="#1d1d1b"
       id="g184"
       style="stroke:#ffffff;stroke-width:0.235207;stroke-dasharray:none;stroke-opacity:1"
       transform="matrix(4135831.9,630097.25,-630097.25,4135831.9,1134610300,359931970)"><path
         d="m 22.87,20.59 c 0,-0.13 1.42,-2 1.71,-1.79 0.29,0.21 0.46,0.46 0.29,0.71 a 9.25,9.25 0 0 1 -1.33,1.58 c -0.17,0 -0.71,-0.29 -0.67,-0.5 z"
         id="path181"
         style="stroke:#ffffff;stroke-width:0.235207;stroke-dasharray:none;stroke-opacity:1" /><path
         d="m 24.79,23.34 a 23.13,23.13 0 0 1 2.12,3 c -0.08,0.21 -0.16,0.37 -0.29,0.37 a 20.91,20.91 0 0 1 -2.46,-2.83 c -0.04,-0.25 0.5,-0.29 0.63,-0.54 z"
         id="path182"
         style="stroke:#ffffff;stroke-width:0.235207;stroke-dasharray:none;stroke-opacity:1" /><path
         d="m 25.2,22.59 c -0.06,-0.12 0.42,-0.38 0.67,-0.33 a 9.39,9.39 0 0 1 1.79,2.29 1.28,1.28 0 0 1 -0.25,0.54 c 0,0 -2.04,-2.21 -2.21,-2.5 z"
         id="path183"
         style="stroke:#ffffff;stroke-width:0.235207;stroke-dasharray:none;stroke-opacity:1" /><path
         d="m 26.79,21.3 c -0.08,-0.11 0.58,-0.46 0.79,-0.38 0.21,0.08 1.17,1.34 1.08,1.63 -0.09,0.29 -0.16,0.46 -0.37,0.5 -0.21,0.04 -1.38,-1.59 -1.5,-1.75 z"
         id="path184"
         style="stroke:#ffffff;stroke-width:0.235207;stroke-dasharray:none;stroke-opacity:1" /></g><path
       d="m 1200850800,564010740 c 374100,-789360 8196000,1756500 8983800,1030150 787700,-726360 10533700,-13587450 11377000,-13289690 843300,297750 2981800,14038430 3452900,14279480 471100,241040 11422800,2798230 11399200,4064180 -23600,1265960 -10906100,9087300 -10783200,10502530 a 65765476,65765476 0 0 1 1857500,10862560 c -661700,-100820 -11619800,-7060080 -12926400,-6539720 a 27444117,27444117 0 0 1 -8687500,1469460 c -420700,-571910 3884200,-10495630 3851100,-11389360 -33100,-893730 -8625200,-10327860 -8524400,-10989590 z"
       fill="#f2910d"
       id="path185"
       style="stroke:#ffffff;stroke-width:984001;stroke-dasharray:none;stroke-opacity:1" /><path
       d="m 1215755300,570344000 a 22423852,22423852 0 0 1 4297100,8737470 c -157500,1033960 -1215100,2142390 -1654600,1694550 a 65556299,65556299 0 0 1 -5150400,-9248310 c 50400,-330870 1919800,-934750 2507900,-1183710 z"
       fill="#1d1d1b"
       id="path186"
       style="stroke:#ffffff;stroke-width:984001;stroke-dasharray:none;stroke-opacity:1" /><path
       d="m 1220711800,566698040 a 21921825,21921825 0 0 1 4297200,8737470 c -157500,1033960 -1208800,2101030 -1654700,1694550 a 65179779,65179779 0 0 1 -5109000,-9242010 c 50400,-330870 1878500,-941060 2466500,-1190010 z"
       fill="#1d1d1b"
       id="path187"
       style="stroke:#ffffff;stroke-width:984001;stroke-dasharray:none;stroke-opacity:1" /><path
       d="m 1282022500,520644150 c -911500,-1239140 14667500,-1277810 15486800,-2210950 819300,-933140 11536200,-13223130 12544900,-12900170 1008800,322960 5106400,13981260 5943400,14320370 837000,339120 20420800,4846180 20263300,5880140 -157500,1033960 -12759200,14306350 -12916700,15340310 a 73379546,73379546 0 0 1 -864200,11505860 141153130,141153130 0 0 1 -11197700,-9831090 8910971,8910971 0 0 0 727800,-2555170 58569763,58569763 0 0 0 -6910700,-10193590 c -661700,-100820 -2937500,948960 -2357700,1587430 a 46019099,46019099 0 0 1 4786000,10250770 c -406500,445890 -17549300,12137750 -18187400,10770980 -638100,-1366770 5335000,-18907520 4846200,-20420820 -488900,-1513300 -11287600,-10352590 -12164000,-11544070 z"
       fill="#fab900"
       id="path188"
       style="stroke:#ffffff;stroke-width:984001;stroke-dasharray:none;stroke-opacity:1" /><path
       d="m 1310144700,528271730 c 0,0 2491700,-1355440 3144400,-917460 a 60034007,60034007 0 0 1 5297000,13841040 c -529800,977250 -2870200,1340080 -2870200,1340080 0,0 -4966200,-13790620 -5571200,-14263660 z"
       fill="#1d1d1b"
       id="path189"
       style="stroke:#ffffff;stroke-width:984001;stroke-dasharray:none;stroke-opacity:1" /><path
       d="m 1319137900,527018120 c -179700,-1043010 2175000,-388050 2771000,422160 596000,810210 2123600,5782590 1338600,6213130 -785000,430550 -2383000,1752870 -2631900,1164810 -249000,-588070 -1304400,-6715740 -1477700,-7800100 z"
       fill="#1d1d1b"
       id="path190"
       style="stroke:#ffffff;stroke-width:984001;stroke-dasharray:none;stroke-opacity:1" /><g
       id="g3"
       transform="translate(60829696)"><rect
         style="fill:none;stroke:#ffffff;stroke-width:2.392e+06;stroke-linecap:round;stroke-linejoin:round;stroke-dasharray:none;stroke-opacity:1;paint-order:stroke fill markers"
         id="rect72"
         width="1199428992"
         height="489716544"
         x="299857216"
         y="116025160" /><g
         transform="matrix(4298989.6,0,0,4298989.6,899232050,145823330)"
         id="g33"><path
           d="m 51.41,37.46 c -0.87,0 -1.53,1 -1.75,1 -0.41,0.09 -0.95,0 -1.58,0 a 3.24,3.24 0 0 0 -2.62,0.91 c -0.92,1 -1.38,5.38 -0.13,6.42 1.25,1.04 3.25,0.58 4,0.46 0.75,-0.12 1,0.21 1.87,0.25 a 4.27,4.27 0 0 0 3.63,-2 c 0.92,-1.59 0.12,-4.34 -0.33,-5.38 A 3.87,3.87 0 0 0 51.41,37.46 Z M 18.54,19.21 c 2,0.63 5.08,-0.2 6.87,-0.33 1.79,-0.13 4.75,0.54 6.13,0.46 1.38,-0.08 3.21,-1.92 3.79,-5 0.58,-3.08 -0.5,-7 -3.37,-8 -2.87,-1 -6.34,0.62 -7.92,1.2 -1.58,0.58 -3.36,0.46 -5.83,1.67 -2.47,1.21 -2.42,2.55 -2.46,4 -0.04,1.45 0.83,5.38 2.79,6 z m 18.25,1.55 c 0.42,0.12 9.5,-10.17 9.62,-10.5 0.12,-0.33 -0.7,-1.09 -1.12,-1.09 -0.42,0 -9.85,9.77 -9.75,10.25 a 3.41,3.41 0 0 0 1.25,1.34 z m 15.75,-7 c 0.33,0.08 2.58,-2.84 2.71,-3.21 0.13,-0.37 -0.63,-0.46 -1,-0.5 -0.37,-0.04 -3,2.51 -2.79,2.75 a 3.65,3.65 0 0 0 1.08,0.96 z M 13.12,23.3 c 0.34,-0.59 -1.83,0 -2.41,0.25 A 6.83,6.83 0 0 0 7.79,26.88 8.79,8.79 0 0 0 6.62,31 1.94,1.94 0 0 0 8.41,31.29 c 0.42,-0.21 0.3,-1.67 0.92,-3.71 0.62,-2.04 3.46,-3.7 3.79,-4.28 z M 36.5,8.05 a 10,10 0 0 0 2.37,-2.21 c 0.09,-0.25 -0.12,-0.67 -0.62,-0.83 -0.5,-0.16 -2.79,1.25 -2.71,2 0.04,0.37 0.58,1.08 0.96,1.04 z m 19.79,8.62 C 54.5,14.3 50.66,15.59 49.91,15.8 c -0.75,0.21 -2.8,-0.2 -3.75,0.54 -3,2.33 -2.25,6.46 -2.12,7.5 a 2.53,2.53 0 0 0 2.17,2 c 0.91,0.08 3.62,1.29 5.08,1.62 1.46,0.33 4,0.21 5,-1.37 1,-1.58 1.79,-7.04 0,-9.42 z m -6.71,14.54 c 0.13,-0.41 -0.08,-0.33 -0.46,-0.41 -0.38,-0.08 -3,2.18 -3.33,2.58 -0.13,0.17 0.75,1.17 1.08,1.17 0.33,0 2.59,-2.92 2.71,-3.34 z M 31,57.46 c -0.25,-0.08 -1,0.21 -3.92,0.17 a 4.88,4.88 0 0 1 -3.54,-1.17 c -0.33,0 -1,0.63 -1.25,1 -0.25,0.37 0.62,0.55 1.12,0.84 a 9.42,9.42 0 0 0 4,0.71 8.42,8.42 0 0 0 3.84,-0.55 c 0,-0.16 0,-0.91 -0.25,-1 z m 7.66,-30.62 c -2.37,-1.42 -3.91,-4 -7.08,-4.25 -3.17,-0.25 -5.29,1.56 -8,1.92 -3.83,0.5 -7.17,1 -9.83,3.12 a 11.36,11.36 0 0 0 -4,8.13 5,5 0 0 0 1.67,4.45 c 0.79,0.75 -0.13,2.25 -0.25,3.5 a 11.39,11.39 0 0 0 3.91,7.88 c 2.88,2.17 4.46,2 7,2 2.54,0 3.58,0.54 7.5,1.25 3.92,0.71 5,0.17 7.88,-2.46 2.88,-2.63 1.54,-5.54 1.79,-6.08 0.25,-0.54 1.54,-1.21 2.71,-2.54 1.17,-1.33 2,-5.67 1.66,-8.67 -0.34,-3 -2.62,-6.83 -4.96,-8.25 z"
           fill="#1d1d1b"
           stroke="#808080"
           id="path3" /><path
           d="m 21.16,9.55 a 3.63,3.63 0 0 0 3.21,1.75 3.57,3.57 0 0 0 3.09,-2.38 c 0.29,-0.71 0.16,-1.25 0.29,-1.25 0.13,0 2.87,-0.91 4.29,0.92 a 7.19,7.19 0 0 1 1.21,6.25 c -0.63,1.67 -2.13,2.92 -3,2.92 a 37.37,37.37 0 0 0 -6.59,-0.42 c -2.79,0.25 -3.25,0.46 -3.79,0.21 a 6.45,6.45 0 0 1 -2,-3.46 4.47,4.47 0 0 1 0.92,-3.58 12.86,12.86 0 0 1 2.37,-0.96 z"
           fill="#e6e4da"
           id="path4" /><path
           d="m 22.46,9.17 c -0.05,-0.2 3.66,-1.25 3.79,-1 a 2.36,2.36 0 0 1 -1.59,2.09 1.92,1.92 0 0 1 -2.2,-1.09 z"
           fill="#e6e4da"
           id="path5" /><g
           fill="#1d1d1b"
           id="g8"><path
             d="m 28.75,8.76 c -0.07,-0.22 0.62,-0.34 0.83,-0.17 0.21,0.17 1.25,2.62 1,2.83 -0.25,0.21 -0.75,0.42 -0.91,0.13 -0.16,-0.29 -0.88,-2.67 -0.92,-2.79 z"
             id="path6" /><path
             d="m 30.71,8.88 c -0.06,-0.16 0.45,-0.17 0.75,0.13 0.3,0.3 0.87,1.66 0.62,1.83 -0.25,0.17 -0.42,0.29 -0.62,0.12 A 10.9,10.9 0 0 1 30.71,8.88 Z"
             id="path7" /><path
             d="M 20.87,13.55 C 22,12.9 24,13.13 24,15 c 0,1.87 -2.79,2.17 -3.5,1.42 a 1.75,1.75 0 0 1 0.37,-2.87 z"
             id="path8" /></g><path
           d="m 21.58,14.26 c 0.48,-0.29 1.42,0.08 1.42,0.7 0,0.62 -1,0.84 -1.42,0.67 a 0.78,0.78 0 0 1 0,-1.37 z"
           fill="#ffffff"
           id="path9" /><path
           d="m 28,13.05 c 1.25,-0.78 3.91,0 3.62,1.79 -0.29,1.79 -2.25,2.12 -3.33,2 C 27.21,16.72 24.66,15.13 28,13.05 Z"
           fill="#1d1d1b"
           id="path10" /><path
           d="m 28.5,13.76 c 0.44,-0.22 2,-0.21 2,0.87 0,1.08 -1.42,1.5 -2.33,1.25 -0.91,-0.25 -0.88,-1.54 0.33,-2.12 z"
           fill="#ffffff"
           id="path11" /><path
           d="m 47.25,17.8 c 0.35,-0.34 1.54,-0.42 1.62,-0.17 0.08,0.25 0.29,2 1.46,2.67 a 2.66,2.66 0 0 0 2.58,0.37 c 0.71,-0.25 1.21,-0.62 1.13,-0.79 -0.08,-0.17 -0.33,-0.67 -0.5,-0.67 -0.17,0 -1.67,1.09 -2.67,0.25 -1,-0.84 -0.62,-2 -0.16,-2.16 0.46,-0.16 3.29,-0.59 4,0.37 0.71,0.96 0.62,7 0.21,6.71 -0.41,-0.29 -0.88,-1.67 -1.13,-1.67 -0.25,0 -0.79,0.21 -0.67,0.5 0.12,0.29 1.38,1.71 1.13,2 -0.25,0.29 -0.71,0.63 -0.92,0.46 -0.21,-0.17 -0.66,-2.21 -1.08,-2.17 -0.42,0.04 -1,0.25 -0.83,0.5 0.17,0.25 0.66,1.46 0.41,1.5 -0.25,0.04 -2.12,-0.58 -3,-0.66 -0.88,-0.08 -2.17,0.12 -2.62,-1.09 -0.45,-1.21 -0.46,-4.49 1.04,-5.95 z"
           fill="#e6e4da"
           id="path12" /><path
           d="m 48.41,21.26 a 1.82,1.82 0 0 1 2.34,1.41 c 0,1 -1.79,1.79 -2.75,1.09 -0.96,-0.7 -1.13,-1.88 0.41,-2.5 z"
           fill="#1d1d1b"
           id="path13" /><path
           d="m 48.81,22.16 a 0.6,0.6 0 0 1 0.77,0.46 c 0,0.35 -0.59,0.59 -0.91,0.36 -0.32,-0.23 -0.37,-0.62 0.14,-0.82 z"
           fill="#ffffff"
           id="path14" /><path
           d="m 46.58,40.13 c 0.14,-0.17 0.92,-0.37 0.88,-0.17 -0.04,0.2 -0.59,1.13 0.5,1.59 a 3.52,3.52 0 0 1 1.41,0.91 c 0,0 0.21,2.13 -0.12,2.13 -0.33,0 -0.59,0.08 -0.63,-0.13 -0.04,-0.21 0,-1.5 -0.21,-1.54 -0.21,-0.04 -0.7,-0.25 -0.75,0 -0.05,0.25 0.13,1.88 -0.08,1.75 -0.21,-0.13 -0.5,0.13 -0.87,-0.46 -0.37,-0.59 -0.5,-3.62 -0.13,-4.08 z"
           fill="#e6e4da"
           id="path15" /><path
           d="m 52,39.59 c 0.12,-0.08 0.54,-0.25 0.75,-0.08 a 4,4 0 0 1 0.66,2.83 c -0.16,1.5 -0.37,1.83 -0.66,1.92 -0.29,0.09 -0.25,0.25 -0.3,0.08 -0.05,-0.17 0,-1.46 -0.25,-1.5 -0.25,-0.04 -0.79,0 -0.83,0.12 -0.04,0.12 0.21,1.8 -0.12,1.75 -0.33,-0.05 -0.88,0 -0.92,-0.25 a 7.77,7.77 0 0 1 -0.08,-2 c 0.12,0 1.54,-0.09 1.83,-1 A 3.12,3.12 0 0 0 52,39.59 Z"
           fill="#e6e4da"
           id="path16" /><path
           d="m 49.25,39.59 c 1.38,-0.17 2,0.75 1.87,1.33 -0.13,0.58 -0.87,1 -1.87,0.42 -1,-0.58 -1.04,-1.63 0,-1.75 z"
           fill="#ffffff"
           id="path17" /><path
           d="m 23.25,26 c 1.45,-0.17 3.12,-1 5.5,-1.25 a 8.32,8.32 0 0 1 6.5,1.67 25.16,25.16 0 0 1 5,4.83 9.39,9.39 0 0 1 1.41,7.92 c -0.79,3.08 -1.12,3.71 -2.12,4.46 -1,0.75 -2.21,1.87 -2.25,2.29 -0.04,0.42 1,3.63 -1,5.42 -2,1.79 -3.5,2.37 -4.54,2.29 -1.04,-0.08 -4.5,-1.38 -8,-1.42 C 20.25,52.17 18.12,52 16.54,50.8 a 11.64,11.64 0 0 1 -3.29,-5.34 c 0,-0.75 -0.21,-1.45 0.08,-1.58 0.29,-0.13 3.21,-0.62 4.08,-1.33 0.87,-0.71 0.71,-2.29 0,-3.38 C 16.7,38.08 16.16,37.21 15,37 13.84,36.79 12.25,38.17 12.25,38.17 A 3.73,3.73 0 0 1 11.7,35.42 C 12,34 12.75,30.71 15,28.67 17.25,26.63 20.79,26.26 23.25,26 Z"
           fill="#e6e4da"
           id="path18" /><path
           d="m 17.16,28.76 c 0.28,-0.19 1.09,0.29 0.92,0.58 a 15.78,15.78 0 0 0 -2,2.67 c -0.37,1 -0.16,1.58 -0.54,1.75 -0.38,0.17 -0.92,0.62 -1,0 a 5.34,5.34 0 0 1 0.71,-2.63 9.52,9.52 0 0 1 1.91,-2.37 z"
           fill="#1d1d1b"
           id="path19" /><path
           d="m 28.62,26.88 c 1.92,-0.5 3.59,0.58 4.67,1.25 a 5.88,5.88 0 0 0 2.42,1.13 c 0.87,0.12 1.5,0.33 1.66,1 0.16,0.67 0,2.33 -0.5,2.54 -0.5,0.21 -2.58,0.25 -3.58,1.08 -1,0.83 -1.33,1.71 -2.71,2 -1.38,0.29 -2.83,0.54 -4.37,-0.71 -1.54,-1.25 -3,-6.87 2.41,-8.29 z"
           fill="#1d1d1b"
           id="path20" /><path
           d="m 29,27.88 a 5.56,5.56 0 0 1 3.29,0.83 c 1.12,0.67 0.87,0.8 2,1.09 1.13,0.29 1.87,0.41 2,0.87 0.13,0.46 0.37,1.29 -0.17,1.46 -0.54,0.17 -2.5,0.13 -3.46,0.79 C 31.7,33.58 31,35.21 28.91,35 A 3.38,3.38 0 0 1 26,31.8 3.69,3.69 0 0 1 29,27.88 Z"
           fill="#ffffff"
           id="path21" /><path
           d="m 35.58,37 a 2.6,2.6 0 0 1 3.63,3.25 c -0.92,2.55 -3.63,2.84 -4.84,1.42 A 3.13,3.13 0 0 1 35.58,37 Z"
           fill="#1d1d1b"
           id="path22" /><path
           d="m 35.94,37.91 a 1.65,1.65 0 0 1 2.31,2.09 1.84,1.84 0 0 1 -3.08,0.91 2,2 0 0 1 0.77,-3 z"
           fill="#ffffff"
           id="path23" /><path
           d="m 13.12,39.13 c 0.17,-0.12 1,-1.12 2.09,-0.71 1.09,0.41 2,2.84 1.62,3.13 a 12.62,12.62 0 0 1 -3.21,1.12 C 13.54,42.55 14,40.96 13.83,40.42 a 6,6 0 0 0 -0.71,-1.29 z"
           fill="#ffffff"
           id="path24" /><path
           d="m 24.75,42.92 c 0.44,-0.19 3.62,-0.33 4.21,0.21 0.59,0.54 0.87,2.21 2.2,2.88 1.33,0.67 2,1.12 2,2.29 a 2.25,2.25 0 0 1 -2,2.08 c -0.79,0 -2.91,-0.92 -4.58,-0.92 a 8.4,8.4 0 0 1 -3.87,-0.58 2.88,2.88 0 0 1 -0.88,-2.71 c 0.33,-0.5 1.29,-2.54 2.92,-3.25 z"
           fill="#1d1d1b"
           id="path25" /><path
           d="m 25.46,43.92 c 0.68,-0.28 2.62,-0.29 2.91,0.21 0.29,0.5 0.67,1.67 1.29,2 0.62,0.33 2.59,1.17 2.55,1.87 -0.04,0.7 -0.92,1.59 -1.05,1.5 a 8.25,8.25 0 0 0 -4.12,-1 c -2.21,0.09 -2.58,0.38 -3.21,0 -0.63,-0.38 -1.12,-1.25 -0.92,-1.75 a 8.84,8.84 0 0 1 2.55,-2.83 z"
           fill="#ffffff"
           id="path26" /><g
           fill="#1d1d1b"
           id="g32"><path
             d="m 20.54,37.26 a 0.56,0.56 0 0 1 1,0 c 0.21,0.46 1.17,5 0.88,5.17 -0.29,0.17 -0.59,0.54 -0.8,0.21 a 32.31,32.31 0 0 1 -1.08,-5.38 z"
             id="path27" /><path
             d="m 22.91,37.17 a 0.56,0.56 0 0 1 0.84,0 c 0.12,0.25 0.91,3.8 0.54,3.92 -0.37,0.12 -0.71,0.38 -0.88,-0.08 -0.17,-0.46 -0.75,-3.46 -0.5,-3.84 z"
             id="path28" /><path
             d="m 25.41,37.63 c 0.1,-0.28 0.71,-0.12 0.84,0.08 a 18.89,18.89 0 0 1 0.37,3.38 c -0.08,0.17 -0.71,0.21 -0.83,-0.08 a 25.7,25.7 0 0 1 -0.38,-3.38 z"
             id="path29" /><path
             d="m 27.79,38.13 a 0.46,0.46 0 0 1 0.71,0 c 0.25,0.25 1.08,3.42 0.58,3.46 -0.5,0.04 -0.75,0.21 -1,-0.38 a 9.2,9.2 0 0 1 -0.29,-3.08 z"
             id="path30" /><path
             d="m 30.16,37.71 c 0.18,-0.17 0.75,-0.41 0.84,0.09 0.09,0.5 0.12,1.33 -0.17,1.46 -0.29,0.13 -0.62,0.45 -0.75,0 a 3.32,3.32 0 0 1 0.08,-1.55 z"
             id="path31" /><path
             d="m 16,45.21 c 0,-0.31 0.67,-0.37 0.79,0 0.12,0.37 0.5,1.42 0.29,1.5 A 0.71,0.71 0 0 1 16.42,46.8 C 16.16,46.67 16,45.59 16,45.21 Z"
             id="path32" /></g></g><g
         transform="matrix(4862696,0,0,4862696,634473530,300959530)"
         stroke-width="0"
         id="g62"><path
           d="M 18.68,10.74 A 26.63,26.63 0 0 1 29.93,7.21 C 34.18,7 38.08,8 43.49,10.59 c 5.41,2.59 8.4,5.06 10.69,9.31 2.29,4.25 3.53,7.38 2.28,12.91 -1.25,5.53 -1.63,11.09 -3.85,14.93 -2.22,3.84 -5.93,6.5 -11.43,7.88 C 35.68,57 27.86,57.9 21.11,54.18 14.36,50.46 9.61,44.93 7.86,37.28 6.11,29.63 7.55,25.65 8.86,22.06 a 23.64,23.64 0 0 1 9.82,-11.32 z"
           fill="#1d1d1b"
           id="path33" /><path
           d="m 20.55,11.31 a 22.85,22.85 0 0 1 7.69,-2.6 c 4,-0.47 10.47,1.32 11.15,1.63 0.68,0.31 1.25,0.5 1,0.69 -0.25,0.19 -2.53,2.18 -3.34,2.31 -0.81,0.13 -3.62,-0.56 -5.75,-0.47 -2.13,0.09 -3.56,0.5 -4.59,0.5 -1.03,0 -2.5,-1.13 -3.5,-1.22 -1,-0.09 -3.13,-0.59 -2.66,-0.84 z"
           fill="#4eae4d"
           id="path34" /><path
           d="m 18.58,12.87 a 5.82,5.82 0 0 1 4.16,0.34 c 1.62,0.88 1.44,1.25 3.65,1.22 2.21,-0.03 3.29,-0.4 3.94,-0.25 0.65,0.15 3.41,1.35 5.85,0.88 a 10.42,10.42 0 0 0 4.28,-1.75 c 0.72,-0.47 1.15,-1.25 1.59,-1.19 0.44,0.06 4.41,2.41 4.34,2.66 a 4.52,4.52 0 0 1 -1.71,1.5 7.43,7.43 0 0 0 -2.79,3.46 c -0.5,1.47 -0.78,5.88 -0.12,6.32 0.66,0.44 2.34,-0.19 3,0.31 0.66,0.5 0.81,2.06 1.91,2.19 1.1,0.13 1.56,-0.69 2.56,0 1,0.69 1,1.21 2.56,1.25 1.56,0.04 3,-0.32 3.09,0 a 2.47,2.47 0 0 1 -0.12,1.43 c -0.16,0.1 -5.44,0.72 -6.69,0.79 -1.25,0.07 -1,0.34 -1.69,0 C 45.7,31.69 44.61,30.4 43,30.15 41.39,29.9 36.47,29.59 35.5,29.59 c -0.97,0 -1.25,0 -1.35,0.47 -0.1,0.47 0.1,5.18 -0.4,6.72 -0.5,1.54 -0.16,4.06 1.65,4.78 1.81,0.72 3.69,1.09 3.94,1.75 0.25,0.66 1.13,5 1.91,6.47 0.78,1.47 1.87,3.15 1.5,3.46 a 20.31,20.31 0 0 1 -6,1.54 23.64,23.64 0 0 1 -5.78,0 c 0,0 -1.16,-6 -1.47,-6.54 A 4.67,4.67 0 0 1 29.09,45.9 c 0.13,-0.41 2.34,-4.87 2.06,-6 -0.28,-1.13 -0.72,-2.28 -1.75,-2.56 -1.03,-0.28 -2.75,0 -5.53,0 A 27.84,27.84 0 0 1 18.53,36.9 c -0.56,-0.12 -0.88,0 -1.13,-0.28 -0.25,-0.28 -2.28,-4 -2,-4.34 0.28,-0.34 3.13,-1.16 3.25,-1.82 0.12,-0.66 -0.06,-2.25 0.66,-2.31 0.72,-0.06 3.87,0.38 4.87,-0.15 1,-0.53 1.13,-1.75 1.16,-2.82 0.03,-1.07 -0.37,-3.4 -0.84,-3.84 -0.47,-0.44 -5,-1.81 -6.72,-2.72 C 16.06,17.71 14.61,17 14.8,16.4 a 12.45,12.45 0 0 1 3.78,-3.53 z"
           fill="#85bfe9"
           id="path35" /><path
           d="m 20.49,15 c 0.54,-0.07 0.59,0.35 0.4,0.72 -0.19,0.37 0,1.72 0.6,1.69 a 55.56,55.56 0 0 1 6.4,-1.06 26.38,26.38 0 0 1 8,1.65 c 0.75,0.41 1.1,2 1.16,2.47 A 29.44,29.44 0 0 1 34.3,26 c -0.28,0.15 -3.19,-1 -5.28,-2 -2.09,-1 -3,-1.47 -3.09,-1.88 a 6.23,6.23 0 0 0 -0.5,-1.69 c -0.19,-0.09 -3,-0.28 -4.35,-1.09 -1.35,-0.81 -2.56,-2.13 -2.31,-2.69 A 4.18,4.18 0 0 1 20.49,15 Z"
           fill="#1d1d1b"
           id="path36" /><g
           fill="#4eae4d"
           id="g40"><path
             d="m 24.36,17.87 a 20.8,20.8 0 0 1 7.25,0.31 c 3.19,0.63 3.69,1.16 3.6,1.94 -0.09,0.78 -1.28,4 -1.72,3.84 a 41.78,41.78 0 0 1 -5.31,-2.18 c -0.22,-0.32 -0.29,-1.88 -1.22,-2.16 -0.93,-0.28 -2.88,-0.88 -3.53,-1.13 -0.65,-0.25 -0.5,-0.5 -0.35,-0.5 0.15,0 1.28,-0.12 1.28,-0.12 z"
             id="path37" /><path
             d="m 47.58,15.21 c 0.21,-0.07 2.94,1.07 4.81,4.63 1.87,3.56 2.47,7.94 2.25,8.34 -0.22,0.4 -0.9,0.44 -1.53,0.25 -0.63,-0.19 -3.11,-1.56 -3.65,-1.56 -0.54,0 -1.41,0.47 -1.78,0 C 47.31,26.4 46.18,25 45.05,25 c -1.13,0 -1.37,0.19 -1.56,-0.06 -0.19,-0.25 -0.81,-5.53 0.37,-6.5 1.18,-0.97 2.22,-1.59 2.69,-2 0.47,-0.41 0.75,-1.13 1.03,-1.23 z"
             id="path38" /><path
             d="m 35.71,31 c 0.36,0 5.72,-0.4 6.78,0.63 1.06,1.03 1.94,2.15 2.84,2.12 0.9,-0.03 9.19,-0.75 9.19,-0.43 0,0.32 -0.94,7.5 -2.38,11.15 a 15.91,15.91 0 0 1 -5.53,7.06 c -1.15,0.66 -2.34,0.91 -2.43,0.72 a 21.82,21.82 0 0 1 -2.29,-5.93 c -0.68,-3.22 -0.87,-4.72 -1.93,-5 -1.06,-0.28 -3.69,-0.9 -4.19,-1.53 a 4,4 0 0 1 -0.56,-1.87 c 0,0 0.28,-3.88 0.28,-4.72 0,-0.84 0.03,-2.2 0.22,-2.2 z"
             id="path39" /><path
             d="m 17.43,38.21 a 12.74,12.74 0 0 0 4.84,0.91 c 3.31,0.06 6.56,-0.31 6.91,0.09 0.35,0.4 0.28,1.78 -0.44,3.1 a 21.38,21.38 0 0 0 -1.19,2.59 26.16,26.16 0 0 0 -3.16,-2.5 0.59,0.59 0 0 0 -0.34,0.69 c 0.13,0.28 3,2.22 3.13,2.47 a 9.75,9.75 0 0 1 -0.1,1.75 25.76,25.76 0 0 0 -3,-2.38 c -0.37,-0.06 -0.62,0.85 -0.5,1 0.12,0.15 3.53,2.5 4,2.91 a 6.06,6.06 0 0 1 0.84,2.53 c -0.09,0 -3.9,-3.09 -4.12,-3.13 -0.22,-0.04 -0.28,1 -0.28,1 0,0 4.5,3.19 4.65,3.44 a 6.49,6.49 0 0 1 0.44,1.88 32.57,32.57 0 0 1 -3.59,-0.91 c -1.25,-0.47 -2.35,-0.72 -2.35,-0.81 0,-0.09 -1.17,-3.78 -2.81,-5.38 A 12.91,12.91 0 0 1 18,44.81 31.09,31.09 0 0 1 17.65,41.09 c -0.04,-0.85 -0.41,-2.88 -0.22,-2.88 z"
             id="path40" /></g><path
           d="m 10.52,38.4 c 0.19,-0.37 2.56,0.25 3.69,0.69 1.13,0.44 1.5,1 1.53,1.87 0.03,0.87 -0.13,4.66 0.65,5.35 a 10.71,10.71 0 0 1 3.07,3.28 7.26,7.26 0 0 1 1,2.19 20.15,20.15 0 0 1 -5.91,-5.5 C 11.36,42.15 10.43,38.59 10.52,38.4 Z"
           fill="#85bfe9"
           id="path41" /><path
           d="M 9.61,36.18 A 17.66,17.66 0 0 1 9.49,26.53 c 1.37,-5.69 4,-8.72 4.22,-8.69 0.22,0.03 5.4,3 7.5,4 2.1,1 2.22,1 2.37,1.44 a 10.13,10.13 0 0 1 -0.19,3.34 c -0.18,0.09 -3.93,-0.09 -5,0 -1.07,0.09 -1.39,1.59 -1.31,2.19 0.08,0.6 0.13,0.87 -0.12,1.06 -0.25,0.19 -3.6,1.09 -3.78,2 -0.18,0.91 2.37,5.37 2,5.5 -0.37,0.13 -4.57,-0.16 -5.57,-1.19 z"
           fill="#4eae4d"
           id="path42" /><g
           fill="#1d1d1b"
           id="g61"><path
             d="m 11.36,25.18 a 19.09,19.09 0 0 1 1.16,-3.65 c 0.5,-0.75 0.72,-0.91 0.94,-0.85 0.22,0.06 0.84,0.35 0.78,0.53 -0.06,0.18 -1.13,2.25 -1.41,3.16 -0.28,0.91 0,0.91 -0.4,1 -0.4,0.09 -0.94,0.03 -1.07,-0.19 z"
             id="path43" /><path
             d="m 40,15.59 c 0.16,-0.14 2.53,-0.72 2.69,-0.5 0.16,0.22 0.34,0.44 0.18,0.56 a 11.75,11.75 0 0 1 -2.62,0.94 c -0.2,-0.1 -0.45,-0.85 -0.25,-1 z"
             id="path44" /><path
             d="m 38.46,22.93 c 0.15,0.16 1.47,2.28 1.31,2.47 -0.16,0.19 0,0.47 -0.34,0.31 a 6.24,6.24 0 0 1 -1.54,-2.22 c 0.11,-0.25 0.57,-0.56 0.57,-0.56 z"
             id="path45" /><path
             d="m 37,24.37 a 12.18,12.18 0 0 1 1.72,2.09 c 0,0.19 0,0.47 -0.31,0.38 A 8.07,8.07 0 0 1 36.55,25 c 0,-0.16 0.45,-0.66 0.45,-0.63 z"
             id="path46" /><path
             d="m 49.33,19.65 a 7.18,7.18 0 0 1 2.5,1.22 c 0,0.19 0.1,0.69 -0.15,0.59 -0.25,-0.1 -2.54,-1 -2.63,-1.12 -0.09,-0.12 0.25,-0.66 0.28,-0.69 z"
             id="path47" /><path
             d="m 49.11,22 c 0.08,-0.11 4,2.18 4,2.53 0,0.35 0.35,0.59 -0.06,0.53 A 30.17,30.17 0 0 1 48.8,22.9 C 48.68,22.71 49,22.15 49.11,22 Z"
             id="path48" /><path
             d="m 48.74,24 a 25.43,25.43 0 0 1 4.84,2.62 c 0.06,0.28 0.28,0.59 -0.12,0.56 A 40.58,40.58 0 0 1 48.52,24.81 C 48.43,24.68 48.61,24.06 48.74,24 Z"
             id="path49" /><path
             d="m 49.68,35.53 a 13.17,13.17 0 0 1 2.9,2.78 c -0.09,0.25 0,0.37 -0.28,0.28 a 22.37,22.37 0 0 1 -3.12,-2.72 c 0.06,-0.16 0.34,-0.28 0.5,-0.34 z"
             id="path50" /><path
             d="m 48.11,37.43 a 28.41,28.41 0 0 1 3.35,3.16 c 0,0.25 -0.13,0.47 -0.25,0.44 a 41.72,41.72 0 0 1 -3.44,-3 4.75,4.75 0 0 1 0.34,-0.6 z"
             id="path51" /><path
             d="m 47.11,39.46 a 23.35,23.35 0 0 1 3.35,3.32 c -0.07,0.25 0.06,0.4 -0.25,0.37 A 39.21,39.21 0 0 1 46.68,40 3.19,3.19 0 0 1 47.11,39.46 Z"
             id="path52" /><path
             d="m 46.33,41.12 a 29.14,29.14 0 0 1 3.41,3.28 c 0,0.25 -0.1,0.41 -0.22,0.31 a 43.92,43.92 0 0 1 -3.84,-3.09 0.84,0.84 0 0 1 0.65,-0.5 z"
             id="path53" /><path
             d="m 45.71,44.12 a 16,16 0 0 1 3.06,2.72 c 0,0.22 -0.16,0.37 -0.25,0.34 a 33.63,33.63 0 0 1 -3.19,-2.5 c -0.03,-0.19 0.31,-0.53 0.38,-0.56 z"
             id="path54" /><path
             d="m 45,45.93 c 0.17,0 3.25,2.69 3,2.94 -0.25,0.25 -0.12,0.37 -0.37,0.28 A 22.27,22.27 0 0 1 44.5,46.46 c 0.11,-0.15 0.33,-0.53 0.5,-0.53 z"
             id="path55" /><path
             d="m 35.18,43.43 c 0.09,-0.14 1.31,0.31 1.28,0.6 -0.03,0.29 0,0.34 -0.16,0.34 a 5,5 0 0 1 -1.53,-0.44 c 0,-0.12 0.34,-0.4 0.41,-0.5 z"
             id="path56" /><path
             d="m 33.14,47.28 a 1.46,1.46 0 0 1 1.16,0 c 0.47,0.22 1.16,1 1.78,1.1 0.62,0.1 1.1,-0.28 1.25,-0.19 a 0.37,0.37 0 0 1 0.16,0.47 c -0.1,0.16 -0.16,0.31 -0.41,0.37 a 2,2 0 0 1 -1.5,-0.15 C 35,48.49 34.64,48 34,48 c -0.64,0 -0.57,0.12 -0.69,0 -0.12,-0.12 -0.42,-0.51 -0.17,-0.72 z"
             id="path57" /><path
             d="m 26,40.15 c 0.25,0.16 2.06,1.75 2,2 -0.06,0.25 -0.19,0.5 -0.38,0.44 A 10.1,10.1 0 0 1 25.47,40.77 C 25.46,40.53 26,40.15 26,40.15 Z"
             id="path58" /><path
             d="m 24.21,30.43 c 0.12,0 2.81,4.19 2.59,4.41 -0.22,0.22 -0.34,0.44 -0.47,0.31 a 44.75,44.75 0 0 1 -2.84,-4.34 1.31,1.31 0 0 1 0.72,-0.38 z"
             id="path59" /><path
             d="m 25.24,30 c 0,-0.12 0.59,-0.38 0.78,-0.19 a 12,12 0 0 1 1.37,2.72 c -0.09,0.18 0,0.47 -0.25,0.28 A 17.6,17.6 0 0 1 25.24,30 Z"
             id="path60" /><path
             d="m 30.74,29.71 c 0.08,-0.11 1,-1 1.28,-1 0.28,0 1,0 0.91,0.22 -0.09,0.22 -1.41,1.91 -1.66,1.75 a 1.66,1.66 0 0 1 -0.53,-0.97 z"
             id="path61" /></g></g><g
         id="g122"
         transform="matrix(1208447,-4005219.6,4005219.6,1208447,265193800,341235620)"
         style="stroke:#ffffff;stroke-width:0.235207;stroke-dasharray:none;stroke-opacity:1"><path
           d="m 12.58,15.71 c -0.25,-0.12 -0.5,-2.29 -0.88,-2.33 -0.38,-0.04 -0.95,2 -0.95,2 0,0 -1.92,0.17 -2,0.54 -0.08,0.37 1.71,1.21 1.71,1.33 0,0.12 -1.05,1.13 -0.75,1.55 0.3,0.42 1.7,-0.46 1.87,-0.46 0.17,0 1.67,1.46 2,1.29 0.33,-0.17 -0.46,-2 -0.5,-2.13 -0.04,-0.13 1.37,-1 1.37,-1.25 0,-0.25 -1.62,-0.41 -1.87,-0.54 z m 8,-5.33 C 20.75,9.13 19.93,7.8 18.5,8.09 c -1.88,0.37 -2.38,2.29 -1.55,3.08 0.83,0.79 3.46,0.46 3.63,-0.79 z m 34.62,0.25 c 0.17,-1.25 -0.64,-2.58 -2.08,-2.29 -1.87,0.37 -2.37,2.29 -1.54,3.08 0.83,0.79 3.42,0.46 3.62,-0.79 z M 38.3,28.35 A 1.85,1.85 0 0 0 40,25.8 C 39.2,24.06 37.22,24.02 36.64,25.01 36.06,26 37,28.48 38.3,28.35 Z m -2.46,8.16 c -1.91,0.13 -2.65,2 -1.92,2.86 0.73,0.86 3.37,0.89 3.7,-0.32 A 1.86,1.86 0 0 0 35.84,36.51 Z M 10.49,52.83 c -0.85,1.72 0.36,3.28 1.5,3.11 1.14,-0.17 2.47,-2.46 1.58,-3.36 a 1.85,1.85 0 0 0 -3.08,0.25 z m 32.84,-33.7 c 0.12,0.17 1.58,-1.29 1.79,-1.46 0.21,-0.17 1.58,0.63 1.83,0.46 0.25,-0.17 -0.5,-1.75 -0.58,-1.92 -0.08,-0.17 1.13,-1.12 1.13,-1.41 0,-0.29 -1.63,-0.17 -1.8,-0.34 -0.17,-0.17 -1,-2.54 -1.41,-2.5 -0.41,0.04 -0.69,3.36 -0.79,3.42 -0.38,0.21 -2.3,1.25 -2.21,1.5 0.09,0.25 1.71,0.29 1.83,0.38 0.12,0.09 0.08,1.74 0.21,1.87 z m -12.5,14.79 c 1,-1 0,-8 0,-8.12 0,-0.12 5.54,-6 5,-6.84 -0.54,-0.84 -6.58,-1.37 -6.79,-1.5 -0.21,-0.13 -1.88,-6.62 -3,-6.62 -1.12,0 -4.42,6.79 -4.58,7 0,0 -5.05,-0.71 -5.55,0.12 -0.5,0.83 3.92,6 3.92,6 0,0 -3.83,7.34 -2.75,8.63 1.08,1.29 6.83,-2.67 7.42,-2.5 0.59,0.17 5.29,4.79 6.33,3.83 z M 11,44.17 c 0.13,-0.12 1.38,0.75 1.67,0.54 0.29,-0.21 -0.21,-1.45 -0.21,-1.58 0,-0.13 1.38,-0.92 1.29,-1.12 -0.09,-0.2 -1.79,-0.38 -1.79,-0.38 0,0 -0.75,-2.42 -1.08,-2.42 -0.33,0 -1,2 -1,2.17 0,0 -1.71,0.17 -1.71,0.5 0,0.33 1.46,0.75 1.46,0.92 0,0.17 -0.38,2.12 -0.38,2.12 a 2.73,2.73 0 0 0 0.67,0.29 C 10.16,45.3 10.83,44.3 11,44.17 Z m 23.42,0.71 c -0.21,-0.71 -4.25,-1 -4.25,-1 0,0 -1.21,-4.62 -2.42,-4.54 -1.21,0.08 -3.45,4.42 -3.62,4.83 0,0 -4.42,-0.29 -4.75,0.54 -0.33,0.83 4,4.25 4,4.59 0,0.34 -2.13,4.75 -1.38,5.54 0.75,0.79 4.71,-2.46 5.09,-2.5 0.38,-0.04 5,2.08 5.75,1.42 0.75,-0.66 -1.59,-4.46 -1.55,-4.76 0.04,-0.3 3.29,-3.41 3.08,-4.12 z M 55.91,30.8 c -0.21,-0.88 -6,-1.38 -6,-1.38 0,0 -2,-4.21 -3.2,-4.12 -1.2,0.09 -3.71,4.62 -3.84,4.79 0,0 -5.33,1.37 -5.33,2.29 0,0.92 4.08,3.62 4.08,3.62 0,0 -0.62,6.46 0.38,7 1,0.54 5.5,-3.83 5.71,-3.83 0.21,0 5.88,3.29 6.17,3 0.29,-0.29 -0.71,-6 -0.75,-6.13 -0.04,-0.13 2.99,-4.37 2.78,-5.24 z m -15,18.66 a 8.83,8.83 0 0 0 -1.16,2.59 c 0,0 -2,1 -2,1.21 0,0.21 1.79,0.37 1.83,0.62 0.04,0.25 -0.37,1.54 -0.12,1.83 0.25,0.29 1.2,-0.87 1.41,-1 0.21,-0.13 1.59,0.8 1.79,0.67 0.2,-0.13 -0.37,-1.54 -0.37,-1.71 0,-0.17 1.83,-1.08 1.71,-1.37 -0.12,-0.29 -2,-0.29 -2.13,-0.38 -0.13,-0.09 -0.58,-2.66 -0.96,-2.46 z"
           fill="#1d1d1b"
           id="path106"
           style="stroke:#ffffff;stroke-width:0.235207;stroke-dasharray:none;stroke-opacity:1" /><path
           d="m 18.54,9 c 0.71,-0.14 1.11,0.51 1,1.13 -0.11,0.62 -1.38,0.78 -1.79,0.39 C 17.34,10.13 17.61,9.15 18.54,9 Z"
           fill="#ffe19b"
           id="path107"
           style="stroke:#ffffff;stroke-width:0.235207;stroke-dasharray:none;stroke-opacity:1" /><path
           d="m 53.16,9.22 a 0.91,0.91 0 0 1 1,1.13 c -0.08,0.62 -1.38,0.78 -1.79,0.39 -0.41,-0.39 -0.13,-1.34 0.79,-1.52 z"
           fill="#ffe19b"
           id="path108"
           style="stroke:#ffffff;stroke-width:0.235207;stroke-dasharray:none;stroke-opacity:1" /><path
           d="m 39.2,26 a 0.93,0.93 0 0 1 -0.86,1.27 c -0.62,0.06 -1.09,-1.16 -0.8,-1.66 0.29,-0.5 1.26,-0.43 1.66,0.39 z"
           fill="#cbe7f5"
           id="path109"
           style="stroke:#ffffff;stroke-width:0.235207;stroke-dasharray:none;stroke-opacity:1" /><path
           d="m 35.77,37.39 a 0.91,0.91 0 0 1 0.88,1.25 c -0.16,0.6 -1.47,0.6 -1.83,0.16 -0.36,-0.44 0.01,-1.35 0.95,-1.41 z"
           fill="#cbe7f5"
           id="path110"
           style="stroke:#ffffff;stroke-width:0.235207;stroke-dasharray:none;stroke-opacity:1" /><path
           d="m 11.21,53.34 a 0.91,0.91 0 0 1 1.52,-0.13 c 0.44,0.44 -0.22,1.57 -0.78,1.66 -0.56,0.09 -1.16,-0.69 -0.74,-1.53 z"
           fill="#ffe19b"
           id="path111"
           style="stroke:#ffffff;stroke-width:0.235207;stroke-dasharray:none;stroke-opacity:1" /><path
           d="m 19,19 c 0.11,-0.4 2.54,0.38 3.29,0.17 0.75,-0.21 1.37,-1.42 1.67,-2 0.3,-0.58 1.54,-3.17 1.83,-3.17 0.29,0 1.54,4.75 2,5.08 0.46,0.33 5.62,1 5.67,1.17 0.05,0.17 -4.26,4.55 -4.3,4.75 -0.04,0.2 0.25,6.41 0.09,6.33 -0.16,-0.08 -3.38,-3 -4.55,-3.08 -1.17,-0.08 -5.37,2.45 -5.5,2.16 -0.13,-0.29 3,-6.71 2.84,-7 C 21.88,23.12 19,19.26 19,19 Z"
           fill="#ffe19b"
           id="path112"
           style="stroke:#ffffff;stroke-width:0.235207;stroke-dasharray:none;stroke-opacity:1" /><g
           fill="#1d1d1b"
           id="g116"
           style="stroke:#ffffff;stroke-width:0.235207;stroke-dasharray:none;stroke-opacity:1"><path
             d="m 22.87,20.59 c 0,-0.13 1.42,-2 1.71,-1.79 0.29,0.21 0.46,0.46 0.29,0.71 a 9.25,9.25 0 0 1 -1.33,1.58 c -0.17,0 -0.71,-0.29 -0.67,-0.5 z"
             id="path113"
             style="stroke:#ffffff;stroke-width:0.235207;stroke-dasharray:none;stroke-opacity:1" /><path
             d="m 24.79,23.34 a 23.13,23.13 0 0 1 2.12,3 c -0.08,0.21 -0.16,0.37 -0.29,0.37 a 20.91,20.91 0 0 1 -2.46,-2.83 c -0.04,-0.25 0.5,-0.29 0.63,-0.54 z"
             id="path114"
             style="stroke:#ffffff;stroke-width:0.235207;stroke-dasharray:none;stroke-opacity:1" /><path
             d="m 25.2,22.59 c -0.06,-0.12 0.42,-0.38 0.67,-0.33 a 9.39,9.39 0 0 1 1.79,2.29 1.28,1.28 0 0 1 -0.25,0.54 c 0,0 -2.04,-2.21 -2.21,-2.5 z"
             id="path115"
             style="stroke:#ffffff;stroke-width:0.235207;stroke-dasharray:none;stroke-opacity:1" /><path
             d="m 26.79,21.3 c -0.08,-0.11 0.58,-0.46 0.79,-0.38 0.21,0.08 1.17,1.34 1.08,1.63 -0.09,0.29 -0.16,0.46 -0.37,0.5 -0.21,0.04 -1.38,-1.59 -1.5,-1.75 z"
             id="path116"
             style="stroke:#ffffff;stroke-width:0.235207;stroke-dasharray:none;stroke-opacity:1" /></g><path
           d="m 23,45.84 c 0.06,-0.2 2,0.12 2.16,-0.08 0.16,-0.2 2,-3.59 2.21,-3.55 0.21,0.04 1.21,3.21 1.33,3.25 0.12,0.04 2.8,0.25 2.84,0.55 0.04,0.3 -2.25,2.54 -2.17,2.87 a 15.72,15.72 0 0 1 0.83,2.5 c -0.16,0 -3,-1.25 -3.29,-1.08 a 6.56,6.56 0 0 1 -2,0.66 c -0.12,-0.12 0.54,-2.62 0.5,-2.83 C 25.37,47.92 23,46 23,45.84 Z"
           fill="#f2910d"
           id="path117"
           style="stroke:#ffffff;stroke-width:0.235207;stroke-dasharray:none;stroke-opacity:1" /><path
           d="m 26.75,46.8 a 5.36,5.36 0 0 1 1.33,1.91 c 0,0.25 -0.21,0.55 -0.33,0.46 a 15.67,15.67 0 0 1 -1.55,-2 c 0,-0.08 0.42,-0.29 0.55,-0.37 z"
           fill="#1d1d1b"
           id="path118"
           style="stroke:#ffffff;stroke-width:0.235207;stroke-dasharray:none;stroke-opacity:1" /><path
           d="m 27.79,45.76 a 5.24,5.24 0 0 1 1.33,1.91 c 0,0.25 -0.21,0.54 -0.33,0.46 a 15.58,15.58 0 0 1 -1.54,-2 c 0,-0.08 0.41,-0.29 0.54,-0.37 z"
           fill="#1d1d1b"
           id="path119"
           style="stroke:#ffffff;stroke-width:0.235207;stroke-dasharray:none;stroke-opacity:1" /><path
           d="m 40.62,32.67 c -0.26,-0.26 3.42,-0.83 3.58,-1.08 0.16,-0.25 2.25,-3.54 2.5,-3.5 0.25,0.04 1.71,3.12 1.92,3.17 0.21,0.05 5,0.41 5,0.66 0,0.25 -2.5,3.84 -2.5,4.09 a 17.54,17.54 0 0 1 0.21,2.75 33.74,33.74 0 0 1 -3,-1.92 2.13,2.13 0 0 0 0.08,-0.63 14,14 0 0 0 -2,-2.16 c -0.16,0 -0.66,0.33 -0.5,0.46 a 11,11 0 0 1 1.5,2.25 c -0.08,0.12 -3.71,3.5 -3.91,3.2 -0.2,-0.3 0.58,-4.66 0.41,-5 -0.17,-0.34 -3.04,-2.04 -3.29,-2.29 z"
           fill="#fab900"
           id="path120"
           style="stroke:#ffffff;stroke-width:0.235207;stroke-dasharray:none;stroke-opacity:1" /><path
           d="m 47.54,33.46 c 0,0 0.54,-0.41 0.71,-0.33 A 14.35,14.35 0 0 1 50,36.21 c -0.09,0.25 -0.63,0.42 -0.63,0.42 0,0 -1.67,-3.08 -1.83,-3.17 z"
           fill="#1d1d1b"
           id="path121"
           style="stroke:#ffffff;stroke-width:0.235207;stroke-dasharray:none;stroke-opacity:1" /><path
           d="m 49.62,32.84 c -0.08,-0.24 0.5,-0.17 0.67,0 0.17,0.17 0.71,1.29 0.54,1.42 -0.17,0.13 -0.5,0.5 -0.58,0.37 -0.08,-0.13 -0.55,-1.54 -0.63,-1.79 z"
           fill="#1d1d1b"
           id="path122"
           style="stroke:#ffffff;stroke-width:0.235207;stroke-dasharray:none;stroke-opacity:1" /></g><g
         id="g139"
         transform="matrix(3807282.2,1733992.7,-1733992.7,3807282.2,368351440,290856550)"
         style="stroke:#ffffff;stroke-width:0.235207;stroke-dasharray:none;stroke-opacity:1"><path
           d="m 12.58,15.71 c -0.25,-0.12 -0.5,-2.29 -0.88,-2.33 -0.38,-0.04 -0.95,2 -0.95,2 0,0 -1.92,0.17 -2,0.54 -0.08,0.37 1.71,1.21 1.71,1.33 0,0.12 -1.05,1.13 -0.75,1.55 0.3,0.42 1.7,-0.46 1.87,-0.46 0.17,0 1.67,1.46 2,1.29 0.33,-0.17 -0.46,-2 -0.5,-2.13 -0.04,-0.13 1.37,-1 1.37,-1.25 0,-0.25 -1.62,-0.41 -1.87,-0.54 z m 8,-5.33 C 20.75,9.13 19.93,7.8 18.5,8.09 c -1.88,0.37 -2.38,2.29 -1.55,3.08 0.83,0.79 3.46,0.46 3.63,-0.79 z m 34.62,0.25 c 0.17,-1.25 -0.64,-2.58 -2.08,-2.29 -1.87,0.37 -2.37,2.29 -1.54,3.08 0.83,0.79 3.42,0.46 3.62,-0.79 z M 38.3,28.35 A 1.85,1.85 0 0 0 40,25.8 C 39.2,24.06 37.22,24.02 36.64,25.01 36.06,26 37,28.48 38.3,28.35 Z m -2.46,8.16 c -1.91,0.13 -2.65,2 -1.92,2.86 0.73,0.86 3.37,0.89 3.7,-0.32 A 1.86,1.86 0 0 0 35.84,36.51 Z M 10.49,52.83 c -0.85,1.72 0.36,3.28 1.5,3.11 1.14,-0.17 2.47,-2.46 1.58,-3.36 a 1.85,1.85 0 0 0 -3.08,0.25 z m 32.84,-33.7 c 0.12,0.17 1.58,-1.29 1.79,-1.46 0.21,-0.17 1.58,0.63 1.83,0.46 0.25,-0.17 -0.5,-1.75 -0.58,-1.92 -0.08,-0.17 1.13,-1.12 1.13,-1.41 0,-0.29 -1.63,-0.17 -1.8,-0.34 -0.17,-0.17 -1,-2.54 -1.41,-2.5 -0.41,0.04 -0.69,3.36 -0.79,3.42 -0.38,0.21 -2.3,1.25 -2.21,1.5 0.09,0.25 1.71,0.29 1.83,0.38 0.12,0.09 0.08,1.74 0.21,1.87 z m -12.5,14.79 c 1,-1 0,-8 0,-8.12 0,-0.12 5.54,-6 5,-6.84 -0.54,-0.84 -6.58,-1.37 -6.79,-1.5 -0.21,-0.13 -1.88,-6.62 -3,-6.62 -1.12,0 -4.42,6.79 -4.58,7 0,0 -5.05,-0.71 -5.55,0.12 -0.5,0.83 3.92,6 3.92,6 0,0 -3.83,7.34 -2.75,8.63 1.08,1.29 6.83,-2.67 7.42,-2.5 0.59,0.17 5.29,4.79 6.33,3.83 z M 11,44.17 c 0.13,-0.12 1.38,0.75 1.67,0.54 0.29,-0.21 -0.21,-1.45 -0.21,-1.58 0,-0.13 1.38,-0.92 1.29,-1.12 -0.09,-0.2 -1.79,-0.38 -1.79,-0.38 0,0 -0.75,-2.42 -1.08,-2.42 -0.33,0 -1,2 -1,2.17 0,0 -1.71,0.17 -1.71,0.5 0,0.33 1.46,0.75 1.46,0.92 0,0.17 -0.38,2.12 -0.38,2.12 a 2.73,2.73 0 0 0 0.67,0.29 C 10.16,45.3 10.83,44.3 11,44.17 Z m 23.42,0.71 c -0.21,-0.71 -4.25,-1 -4.25,-1 0,0 -1.21,-4.62 -2.42,-4.54 -1.21,0.08 -3.45,4.42 -3.62,4.83 0,0 -4.42,-0.29 -4.75,0.54 -0.33,0.83 4,4.25 4,4.59 0,0.34 -2.13,4.75 -1.38,5.54 0.75,0.79 4.71,-2.46 5.09,-2.5 0.38,-0.04 5,2.08 5.75,1.42 0.75,-0.66 -1.59,-4.46 -1.55,-4.76 0.04,-0.3 3.29,-3.41 3.08,-4.12 z M 55.91,30.8 c -0.21,-0.88 -6,-1.38 -6,-1.38 0,0 -2,-4.21 -3.2,-4.12 -1.2,0.09 -3.71,4.62 -3.84,4.79 0,0 -5.33,1.37 -5.33,2.29 0,0.92 4.08,3.62 4.08,3.62 0,0 -0.62,6.46 0.38,7 1,0.54 5.5,-3.83 5.71,-3.83 0.21,0 5.88,3.29 6.17,3 0.29,-0.29 -0.71,-6 -0.75,-6.13 -0.04,-0.13 2.99,-4.37 2.78,-5.24 z m -15,18.66 a 8.83,8.83 0 0 0 -1.16,2.59 c 0,0 -2,1 -2,1.21 0,0.21 1.79,0.37 1.83,0.62 0.04,0.25 -0.37,1.54 -0.12,1.83 0.25,0.29 1.2,-0.87 1.41,-1 0.21,-0.13 1.59,0.8 1.79,0.67 0.2,-0.13 -0.37,-1.54 -0.37,-1.71 0,-0.17 1.83,-1.08 1.71,-1.37 -0.12,-0.29 -2,-0.29 -2.13,-0.38 -0.13,-0.09 -0.58,-2.66 -0.96,-2.46 z"
           fill="#1d1d1b"
           id="path123"
           style="stroke:#ffffff;stroke-width:0.235207;stroke-dasharray:none;stroke-opacity:1" /><path
           d="m 18.54,9 c 0.71,-0.14 1.11,0.51 1,1.13 -0.11,0.62 -1.38,0.78 -1.79,0.39 C 17.34,10.13 17.61,9.15 18.54,9 Z"
           fill="#ffe19b"
           id="path124"
           style="stroke:#ffffff;stroke-width:0.235207;stroke-dasharray:none;stroke-opacity:1" /><path
           d="m 53.16,9.22 a 0.91,0.91 0 0 1 1,1.13 c -0.08,0.62 -1.38,0.78 -1.79,0.39 -0.41,-0.39 -0.13,-1.34 0.79,-1.52 z"
           fill="#ffe19b"
           id="path125"
           style="stroke:#ffffff;stroke-width:0.235207;stroke-dasharray:none;stroke-opacity:1" /><path
           d="m 39.2,26 a 0.93,0.93 0 0 1 -0.86,1.27 c -0.62,0.06 -1.09,-1.16 -0.8,-1.66 0.29,-0.5 1.26,-0.43 1.66,0.39 z"
           fill="#cbe7f5"
           id="path126"
           style="stroke:#ffffff;stroke-width:0.235207;stroke-dasharray:none;stroke-opacity:1" /><path
           d="m 35.77,37.39 a 0.91,0.91 0 0 1 0.88,1.25 c -0.16,0.6 -1.47,0.6 -1.83,0.16 -0.36,-0.44 0.01,-1.35 0.95,-1.41 z"
           fill="#cbe7f5"
           id="path127"
           style="stroke:#ffffff;stroke-width:0.235207;stroke-dasharray:none;stroke-opacity:1" /><path
           d="m 11.21,53.34 a 0.91,0.91 0 0 1 1.52,-0.13 c 0.44,0.44 -0.22,1.57 -0.78,1.66 -0.56,0.09 -1.16,-0.69 -0.74,-1.53 z"
           fill="#ffe19b"
           id="path128"
           style="stroke:#ffffff;stroke-width:0.235207;stroke-dasharray:none;stroke-opacity:1" /><path
           d="m 19,19 c 0.11,-0.4 2.54,0.38 3.29,0.17 0.75,-0.21 1.37,-1.42 1.67,-2 0.3,-0.58 1.54,-3.17 1.83,-3.17 0.29,0 1.54,4.75 2,5.08 0.46,0.33 5.62,1 5.67,1.17 0.05,0.17 -4.26,4.55 -4.3,4.75 -0.04,0.2 0.25,6.41 0.09,6.33 -0.16,-0.08 -3.38,-3 -4.55,-3.08 -1.17,-0.08 -5.37,2.45 -5.5,2.16 -0.13,-0.29 3,-6.71 2.84,-7 C 21.88,23.12 19,19.26 19,19 Z"
           fill="#ffe19b"
           id="path129"
           style="stroke:#ffffff;stroke-width:0.235207;stroke-dasharray:none;stroke-opacity:1" /><g
           fill="#1d1d1b"
           id="g133"
           style="stroke:#ffffff;stroke-width:0.235207;stroke-dasharray:none;stroke-opacity:1"><path
             d="m 22.87,20.59 c 0,-0.13 1.42,-2 1.71,-1.79 0.29,0.21 0.46,0.46 0.29,0.71 a 9.25,9.25 0 0 1 -1.33,1.58 c -0.17,0 -0.71,-0.29 -0.67,-0.5 z"
             id="path130"
             style="stroke:#ffffff;stroke-width:0.235207;stroke-dasharray:none;stroke-opacity:1" /><path
             d="m 24.79,23.34 a 23.13,23.13 0 0 1 2.12,3 c -0.08,0.21 -0.16,0.37 -0.29,0.37 a 20.91,20.91 0 0 1 -2.46,-2.83 c -0.04,-0.25 0.5,-0.29 0.63,-0.54 z"
             id="path131"
             style="stroke:#ffffff;stroke-width:0.235207;stroke-dasharray:none;stroke-opacity:1" /><path
             d="m 25.2,22.59 c -0.06,-0.12 0.42,-0.38 0.67,-0.33 a 9.39,9.39 0 0 1 1.79,2.29 1.28,1.28 0 0 1 -0.25,0.54 c 0,0 -2.04,-2.21 -2.21,-2.5 z"
             id="path132"
             style="stroke:#ffffff;stroke-width:0.235207;stroke-dasharray:none;stroke-opacity:1" /><path
             d="m 26.79,21.3 c -0.08,-0.11 0.58,-0.46 0.79,-0.38 0.21,0.08 1.17,1.34 1.08,1.63 -0.09,0.29 -0.16,0.46 -0.37,0.5 -0.21,0.04 -1.38,-1.59 -1.5,-1.75 z"
             id="path133"
             style="stroke:#ffffff;stroke-width:0.235207;stroke-dasharray:none;stroke-opacity:1" /></g><path
           d="m 23,45.84 c 0.06,-0.2 2,0.12 2.16,-0.08 0.16,-0.2 2,-3.59 2.21,-3.55 0.21,0.04 1.21,3.21 1.33,3.25 0.12,0.04 2.8,0.25 2.84,0.55 0.04,0.3 -2.25,2.54 -2.17,2.87 a 15.72,15.72 0 0 1 0.83,2.5 c -0.16,0 -3,-1.25 -3.29,-1.08 a 6.56,6.56 0 0 1 -2,0.66 c -0.12,-0.12 0.54,-2.62 0.5,-2.83 C 25.37,47.92 23,46 23,45.84 Z"
           fill="#f2910d"
           id="path134"
           style="stroke:#ffffff;stroke-width:0.235207;stroke-dasharray:none;stroke-opacity:1" /><path
           d="m 26.75,46.8 a 5.36,5.36 0 0 1 1.33,1.91 c 0,0.25 -0.21,0.55 -0.33,0.46 a 15.67,15.67 0 0 1 -1.55,-2 c 0,-0.08 0.42,-0.29 0.55,-0.37 z"
           fill="#1d1d1b"
           id="path135"
           style="stroke:#ffffff;stroke-width:0.235207;stroke-dasharray:none;stroke-opacity:1" /><path
           d="m 27.79,45.76 a 5.24,5.24 0 0 1 1.33,1.91 c 0,0.25 -0.21,0.54 -0.33,0.46 a 15.58,15.58 0 0 1 -1.54,-2 c 0,-0.08 0.41,-0.29 0.54,-0.37 z"
           fill="#1d1d1b"
           id="path136"
           style="stroke:#ffffff;stroke-width:0.235207;stroke-dasharray:none;stroke-opacity:1" /><path
           d="m 40.62,32.67 c -0.26,-0.26 3.42,-0.83 3.58,-1.08 0.16,-0.25 2.25,-3.54 2.5,-3.5 0.25,0.04 1.71,3.12 1.92,3.17 0.21,0.05 5,0.41 5,0.66 0,0.25 -2.5,3.84 -2.5,4.09 a 17.54,17.54 0 0 1 0.21,2.75 33.74,33.74 0 0 1 -3,-1.92 2.13,2.13 0 0 0 0.08,-0.63 14,14 0 0 0 -2,-2.16 c -0.16,0 -0.66,0.33 -0.5,0.46 a 11,11 0 0 1 1.5,2.25 c -0.08,0.12 -3.71,3.5 -3.91,3.2 -0.2,-0.3 0.58,-4.66 0.41,-5 -0.17,-0.34 -3.04,-2.04 -3.29,-2.29 z"
           fill="#fab900"
           id="path137"
           style="stroke:#ffffff;stroke-width:0.235207;stroke-dasharray:none;stroke-opacity:1" /><path
           d="m 47.54,33.46 c 0,0 0.54,-0.41 0.71,-0.33 A 14.35,14.35 0 0 1 50,36.21 c -0.09,0.25 -0.63,0.42 -0.63,0.42 0,0 -1.67,-3.08 -1.83,-3.17 z"
           fill="#1d1d1b"
           id="path138"
           style="stroke:#ffffff;stroke-width:0.235207;stroke-dasharray:none;stroke-opacity:1" /><path
           d="m 49.62,32.84 c -0.08,-0.24 0.5,-0.17 0.67,0 0.17,0.17 0.71,1.29 0.54,1.42 -0.17,0.13 -0.5,0.5 -0.58,0.37 -0.08,-0.13 -0.55,-1.54 -0.63,-1.79 z"
           fill="#1d1d1b"
           id="path139"
           style="stroke:#ffffff;stroke-width:0.235207;stroke-dasharray:none;stroke-opacity:1" /></g><g
         id="g156"
         transform="matrix(3292763.1,264026.26,-264026.26,3292763.1,1231922500,106575650)"
         style="stroke:#ffffff;stroke-width:0.235207;stroke-dasharray:none;stroke-opacity:1"><path
           d="m 12.58,15.71 c -0.25,-0.12 -0.5,-2.29 -0.88,-2.33 -0.38,-0.04 -0.95,2 -0.95,2 0,0 -1.92,0.17 -2,0.54 -0.08,0.37 1.71,1.21 1.71,1.33 0,0.12 -1.05,1.13 -0.75,1.55 0.3,0.42 1.7,-0.46 1.87,-0.46 0.17,0 1.67,1.46 2,1.29 0.33,-0.17 -0.46,-2 -0.5,-2.13 -0.04,-0.13 1.37,-1 1.37,-1.25 0,-0.25 -1.62,-0.41 -1.87,-0.54 z m 8,-5.33 C 20.75,9.13 19.93,7.8 18.5,8.09 c -1.88,0.37 -2.38,2.29 -1.55,3.08 0.83,0.79 3.46,0.46 3.63,-0.79 z m 34.62,0.25 c 0.17,-1.25 -0.64,-2.58 -2.08,-2.29 -1.87,0.37 -2.37,2.29 -1.54,3.08 0.83,0.79 3.42,0.46 3.62,-0.79 z M 38.3,28.35 A 1.85,1.85 0 0 0 40,25.8 C 39.2,24.06 37.22,24.02 36.64,25.01 36.06,26 37,28.48 38.3,28.35 Z m -2.46,8.16 c -1.91,0.13 -2.65,2 -1.92,2.86 0.73,0.86 3.37,0.89 3.7,-0.32 A 1.86,1.86 0 0 0 35.84,36.51 Z M 10.49,52.83 c -0.85,1.72 0.36,3.28 1.5,3.11 1.14,-0.17 2.47,-2.46 1.58,-3.36 a 1.85,1.85 0 0 0 -3.08,0.25 z m 32.84,-33.7 c 0.12,0.17 1.58,-1.29 1.79,-1.46 0.21,-0.17 1.58,0.63 1.83,0.46 0.25,-0.17 -0.5,-1.75 -0.58,-1.92 -0.08,-0.17 1.13,-1.12 1.13,-1.41 0,-0.29 -1.63,-0.17 -1.8,-0.34 -0.17,-0.17 -1,-2.54 -1.41,-2.5 -0.41,0.04 -0.69,3.36 -0.79,3.42 -0.38,0.21 -2.3,1.25 -2.21,1.5 0.09,0.25 1.71,0.29 1.83,0.38 0.12,0.09 0.08,1.74 0.21,1.87 z m -12.5,14.79 c 1,-1 0,-8 0,-8.12 0,-0.12 5.54,-6 5,-6.84 -0.54,-0.84 -6.58,-1.37 -6.79,-1.5 -0.21,-0.13 -1.88,-6.62 -3,-6.62 -1.12,0 -4.42,6.79 -4.58,7 0,0 -5.05,-0.71 -5.55,0.12 -0.5,0.83 3.92,6 3.92,6 0,0 -3.83,7.34 -2.75,8.63 1.08,1.29 6.83,-2.67 7.42,-2.5 0.59,0.17 5.29,4.79 6.33,3.83 z M 11,44.17 c 0.13,-0.12 1.38,0.75 1.67,0.54 0.29,-0.21 -0.21,-1.45 -0.21,-1.58 0,-0.13 1.38,-0.92 1.29,-1.12 -0.09,-0.2 -1.79,-0.38 -1.79,-0.38 0,0 -0.75,-2.42 -1.08,-2.42 -0.33,0 -1,2 -1,2.17 0,0 -1.71,0.17 -1.71,0.5 0,0.33 1.46,0.75 1.46,0.92 0,0.17 -0.38,2.12 -0.38,2.12 a 2.73,2.73 0 0 0 0.67,0.29 C 10.16,45.3 10.83,44.3 11,44.17 Z m 23.42,0.71 c -0.21,-0.71 -4.25,-1 -4.25,-1 0,0 -1.21,-4.62 -2.42,-4.54 -1.21,0.08 -3.45,4.42 -3.62,4.83 0,0 -4.42,-0.29 -4.75,0.54 -0.33,0.83 4,4.25 4,4.59 0,0.34 -2.13,4.75 -1.38,5.54 0.75,0.79 4.71,-2.46 5.09,-2.5 0.38,-0.04 5,2.08 5.75,1.42 0.75,-0.66 -1.59,-4.46 -1.55,-4.76 0.04,-0.3 3.29,-3.41 3.08,-4.12 z M 55.91,30.8 c -0.21,-0.88 -6,-1.38 -6,-1.38 0,0 -2,-4.21 -3.2,-4.12 -1.2,0.09 -3.71,4.62 -3.84,4.79 0,0 -5.33,1.37 -5.33,2.29 0,0.92 4.08,3.62 4.08,3.62 0,0 -0.62,6.46 0.38,7 1,0.54 5.5,-3.83 5.71,-3.83 0.21,0 5.88,3.29 6.17,3 0.29,-0.29 -0.71,-6 -0.75,-6.13 -0.04,-0.13 2.99,-4.37 2.78,-5.24 z m -15,18.66 a 8.83,8.83 0 0 0 -1.16,2.59 c 0,0 -2,1 -2,1.21 0,0.21 1.79,0.37 1.83,0.62 0.04,0.25 -0.37,1.54 -0.12,1.83 0.25,0.29 1.2,-0.87 1.41,-1 0.21,-0.13 1.59,0.8 1.79,0.67 0.2,-0.13 -0.37,-1.54 -0.37,-1.71 0,-0.17 1.83,-1.08 1.71,-1.37 -0.12,-0.29 -2,-0.29 -2.13,-0.38 -0.13,-0.09 -0.58,-2.66 -0.96,-2.46 z"
           fill="#1d1d1b"
           id="path140"
           style="stroke:#ffffff;stroke-width:0.235207;stroke-dasharray:none;stroke-opacity:1" /><path
           d="m 18.54,9 c 0.71,-0.14 1.11,0.51 1,1.13 -0.11,0.62 -1.38,0.78 -1.79,0.39 C 17.34,10.13 17.61,9.15 18.54,9 Z"
           fill="#ffe19b"
           id="path141"
           style="stroke:#ffffff;stroke-width:0.235207;stroke-dasharray:none;stroke-opacity:1" /><path
           d="m 53.16,9.22 a 0.91,0.91 0 0 1 1,1.13 c -0.08,0.62 -1.38,0.78 -1.79,0.39 -0.41,-0.39 -0.13,-1.34 0.79,-1.52 z"
           fill="#ffe19b"
           id="path142"
           style="stroke:#ffffff;stroke-width:0.235207;stroke-dasharray:none;stroke-opacity:1" /><path
           d="m 39.2,26 a 0.93,0.93 0 0 1 -0.86,1.27 c -0.62,0.06 -1.09,-1.16 -0.8,-1.66 0.29,-0.5 1.26,-0.43 1.66,0.39 z"
           fill="#cbe7f5"
           id="path143"
           style="stroke:#ffffff;stroke-width:0.235207;stroke-dasharray:none;stroke-opacity:1" /><path
           d="m 35.77,37.39 a 0.91,0.91 0 0 1 0.88,1.25 c -0.16,0.6 -1.47,0.6 -1.83,0.16 -0.36,-0.44 0.01,-1.35 0.95,-1.41 z"
           fill="#cbe7f5"
           id="path144"
           style="stroke:#ffffff;stroke-width:0.235207;stroke-dasharray:none;stroke-opacity:1" /><path
           d="m 11.21,53.34 a 0.91,0.91 0 0 1 1.52,-0.13 c 0.44,0.44 -0.22,1.57 -0.78,1.66 -0.56,0.09 -1.16,-0.69 -0.74,-1.53 z"
           fill="#ffe19b"
           id="path145"
           style="stroke:#ffffff;stroke-width:0.235207;stroke-dasharray:none;stroke-opacity:1" /><path
           d="m 19,19 c 0.11,-0.4 2.54,0.38 3.29,0.17 0.75,-0.21 1.37,-1.42 1.67,-2 0.3,-0.58 1.54,-3.17 1.83,-3.17 0.29,0 1.54,4.75 2,5.08 0.46,0.33 5.62,1 5.67,1.17 0.05,0.17 -4.26,4.55 -4.3,4.75 -0.04,0.2 0.25,6.41 0.09,6.33 -0.16,-0.08 -3.38,-3 -4.55,-3.08 -1.17,-0.08 -5.37,2.45 -5.5,2.16 -0.13,-0.29 3,-6.71 2.84,-7 C 21.88,23.12 19,19.26 19,19 Z"
           fill="#ffe19b"
           id="path146"
           style="stroke:#ffffff;stroke-width:0.235207;stroke-dasharray:none;stroke-opacity:1" /><g
           fill="#1d1d1b"
           id="g150"
           style="stroke:#ffffff;stroke-width:0.235207;stroke-dasharray:none;stroke-opacity:1"><path
             d="m 22.87,20.59 c 0,-0.13 1.42,-2 1.71,-1.79 0.29,0.21 0.46,0.46 0.29,0.71 a 9.25,9.25 0 0 1 -1.33,1.58 c -0.17,0 -0.71,-0.29 -0.67,-0.5 z"
             id="path147"
             style="stroke:#ffffff;stroke-width:0.235207;stroke-dasharray:none;stroke-opacity:1" /><path
             d="m 24.79,23.34 a 23.13,23.13 0 0 1 2.12,3 c -0.08,0.21 -0.16,0.37 -0.29,0.37 a 20.91,20.91 0 0 1 -2.46,-2.83 c -0.04,-0.25 0.5,-0.29 0.63,-0.54 z"
             id="path148"
             style="stroke:#ffffff;stroke-width:0.235207;stroke-dasharray:none;stroke-opacity:1" /><path
             d="m 25.2,22.59 c -0.06,-0.12 0.42,-0.38 0.67,-0.33 a 9.39,9.39 0 0 1 1.79,2.29 1.28,1.28 0 0 1 -0.25,0.54 c 0,0 -2.04,-2.21 -2.21,-2.5 z"
             id="path149"
             style="stroke:#ffffff;stroke-width:0.235207;stroke-dasharray:none;stroke-opacity:1" /><path
             d="m 26.79,21.3 c -0.08,-0.11 0.58,-0.46 0.79,-0.38 0.21,0.08 1.17,1.34 1.08,1.63 -0.09,0.29 -0.16,0.46 -0.37,0.5 -0.21,0.04 -1.38,-1.59 -1.5,-1.75 z"
             id="path150"
             style="stroke:#ffffff;stroke-width:0.235207;stroke-dasharray:none;stroke-opacity:1" /></g><path
           d="m 23,45.84 c 0.06,-0.2 2,0.12 2.16,-0.08 0.16,-0.2 2,-3.59 2.21,-3.55 0.21,0.04 1.21,3.21 1.33,3.25 0.12,0.04 2.8,0.25 2.84,0.55 0.04,0.3 -2.25,2.54 -2.17,2.87 a 15.72,15.72 0 0 1 0.83,2.5 c -0.16,0 -3,-1.25 -3.29,-1.08 a 6.56,6.56 0 0 1 -2,0.66 c -0.12,-0.12 0.54,-2.62 0.5,-2.83 C 25.37,47.92 23,46 23,45.84 Z"
           fill="#f2910d"
           id="path151"
           style="stroke:#ffffff;stroke-width:0.235207;stroke-dasharray:none;stroke-opacity:1" /><path
           d="m 26.75,46.8 a 5.36,5.36 0 0 1 1.33,1.91 c 0,0.25 -0.21,0.55 -0.33,0.46 a 15.67,15.67 0 0 1 -1.55,-2 c 0,-0.08 0.42,-0.29 0.55,-0.37 z"
           fill="#1d1d1b"
           id="path152"
           style="stroke:#ffffff;stroke-width:0.235207;stroke-dasharray:none;stroke-opacity:1" /><path
           d="m 27.79,45.76 a 5.24,5.24 0 0 1 1.33,1.91 c 0,0.25 -0.21,0.54 -0.33,0.46 a 15.58,15.58 0 0 1 -1.54,-2 c 0,-0.08 0.41,-0.29 0.54,-0.37 z"
           fill="#1d1d1b"
           id="path153"
           style="stroke:#ffffff;stroke-width:0.235207;stroke-dasharray:none;stroke-opacity:1" /><path
           d="m 40.62,32.67 c -0.26,-0.26 3.42,-0.83 3.58,-1.08 0.16,-0.25 2.25,-3.54 2.5,-3.5 0.25,0.04 1.71,3.12 1.92,3.17 0.21,0.05 5,0.41 5,0.66 0,0.25 -2.5,3.84 -2.5,4.09 a 17.54,17.54 0 0 1 0.21,2.75 33.74,33.74 0 0 1 -3,-1.92 2.13,2.13 0 0 0 0.08,-0.63 14,14 0 0 0 -2,-2.16 c -0.16,0 -0.66,0.33 -0.5,0.46 a 11,11 0 0 1 1.5,2.25 c -0.08,0.12 -3.71,3.5 -3.91,3.2 -0.2,-0.3 0.58,-4.66 0.41,-5 -0.17,-0.34 -3.04,-2.04 -3.29,-2.29 z"
           fill="#fab900"
           id="path154"
           style="stroke:#ffffff;stroke-width:0.235207;stroke-dasharray:none;stroke-opacity:1" /><path
           d="m 47.54,33.46 c 0,0 0.54,-0.41 0.71,-0.33 A 14.35,14.35 0 0 1 50,36.21 c -0.09,0.25 -0.63,0.42 -0.63,0.42 0,0 -1.67,-3.08 -1.83,-3.17 z"
           fill="#1d1d1b"
           id="path155"
           style="stroke:#ffffff;stroke-width:0.235207;stroke-dasharray:none;stroke-opacity:1" /><path
           d="m 49.62,32.84 c -0.08,-0.24 0.5,-0.17 0.67,0 0.17,0.17 0.71,1.29 0.54,1.42 -0.17,0.13 -0.5,0.5 -0.58,0.37 -0.08,-0.13 -0.55,-1.54 -0.63,-1.79 z"
           fill="#1d1d1b"
           id="path156"
           style="stroke:#ffffff;stroke-width:0.235207;stroke-dasharray:none;stroke-opacity:1" /></g><g
         id="g173"
         transform="matrix(3702807.9,-1947136.8,1947136.8,3702807.9,1206146200,323777110)"
         style="stroke:#ffffff;stroke-width:0.235207;stroke-dasharray:none;stroke-opacity:1"><path
           d="m 12.58,15.71 c -0.25,-0.12 -0.5,-2.29 -0.88,-2.33 -0.38,-0.04 -0.95,2 -0.95,2 0,0 -1.92,0.17 -2,0.54 -0.08,0.37 1.71,1.21 1.71,1.33 0,0.12 -1.05,1.13 -0.75,1.55 0.3,0.42 1.7,-0.46 1.87,-0.46 0.17,0 1.67,1.46 2,1.29 0.33,-0.17 -0.46,-2 -0.5,-2.13 -0.04,-0.13 1.37,-1 1.37,-1.25 0,-0.25 -1.62,-0.41 -1.87,-0.54 z m 8,-5.33 C 20.75,9.13 19.93,7.8 18.5,8.09 c -1.88,0.37 -2.38,2.29 -1.55,3.08 0.83,0.79 3.46,0.46 3.63,-0.79 z m 34.62,0.25 c 0.17,-1.25 -0.64,-2.58 -2.08,-2.29 -1.87,0.37 -2.37,2.29 -1.54,3.08 0.83,0.79 3.42,0.46 3.62,-0.79 z M 38.3,28.35 A 1.85,1.85 0 0 0 40,25.8 C 39.2,24.06 37.22,24.02 36.64,25.01 36.06,26 37,28.48 38.3,28.35 Z m -2.46,8.16 c -1.91,0.13 -2.65,2 -1.92,2.86 0.73,0.86 3.37,0.89 3.7,-0.32 A 1.86,1.86 0 0 0 35.84,36.51 Z M 10.49,52.83 c -0.85,1.72 0.36,3.28 1.5,3.11 1.14,-0.17 2.47,-2.46 1.58,-3.36 a 1.85,1.85 0 0 0 -3.08,0.25 z m 32.84,-33.7 c 0.12,0.17 1.58,-1.29 1.79,-1.46 0.21,-0.17 1.58,0.63 1.83,0.46 0.25,-0.17 -0.5,-1.75 -0.58,-1.92 -0.08,-0.17 1.13,-1.12 1.13,-1.41 0,-0.29 -1.63,-0.17 -1.8,-0.34 -0.17,-0.17 -1,-2.54 -1.41,-2.5 -0.41,0.04 -0.69,3.36 -0.79,3.42 -0.38,0.21 -2.3,1.25 -2.21,1.5 0.09,0.25 1.71,0.29 1.83,0.38 0.12,0.09 0.08,1.74 0.21,1.87 z m -12.5,14.79 c 1,-1 0,-8 0,-8.12 0,-0.12 5.54,-6 5,-6.84 -0.54,-0.84 -6.58,-1.37 -6.79,-1.5 -0.21,-0.13 -1.88,-6.62 -3,-6.62 -1.12,0 -4.42,6.79 -4.58,7 0,0 -5.05,-0.71 -5.55,0.12 -0.5,0.83 3.92,6 3.92,6 0,0 -3.83,7.34 -2.75,8.63 1.08,1.29 6.83,-2.67 7.42,-2.5 0.59,0.17 5.29,4.79 6.33,3.83 z M 11,44.17 c 0.13,-0.12 1.38,0.75 1.67,0.54 0.29,-0.21 -0.21,-1.45 -0.21,-1.58 0,-0.13 1.38,-0.92 1.29,-1.12 -0.09,-0.2 -1.79,-0.38 -1.79,-0.38 0,0 -0.75,-2.42 -1.08,-2.42 -0.33,0 -1,2 -1,2.17 0,0 -1.71,0.17 -1.71,0.5 0,0.33 1.46,0.75 1.46,0.92 0,0.17 -0.38,2.12 -0.38,2.12 a 2.73,2.73 0 0 0 0.67,0.29 C 10.16,45.3 10.83,44.3 11,44.17 Z m 23.42,0.71 c -0.21,-0.71 -4.25,-1 -4.25,-1 0,0 -1.21,-4.62 -2.42,-4.54 -1.21,0.08 -3.45,4.42 -3.62,4.83 0,0 -4.42,-0.29 -4.75,0.54 -0.33,0.83 4,4.25 4,4.59 0,0.34 -2.13,4.75 -1.38,5.54 0.75,0.79 4.71,-2.46 5.09,-2.5 0.38,-0.04 5,2.08 5.75,1.42 0.75,-0.66 -1.59,-4.46 -1.55,-4.76 0.04,-0.3 3.29,-3.41 3.08,-4.12 z M 55.91,30.8 c -0.21,-0.88 -6,-1.38 -6,-1.38 0,0 -2,-4.21 -3.2,-4.12 -1.2,0.09 -3.71,4.62 -3.84,4.79 0,0 -5.33,1.37 -5.33,2.29 0,0.92 4.08,3.62 4.08,3.62 0,0 -0.62,6.46 0.38,7 1,0.54 5.5,-3.83 5.71,-3.83 0.21,0 5.88,3.29 6.17,3 0.29,-0.29 -0.71,-6 -0.75,-6.13 -0.04,-0.13 2.99,-4.37 2.78,-5.24 z m -15,18.66 a 8.83,8.83 0 0 0 -1.16,2.59 c 0,0 -2,1 -2,1.21 0,0.21 1.79,0.37 1.83,0.62 0.04,0.25 -0.37,1.54 -0.12,1.83 0.25,0.29 1.2,-0.87 1.41,-1 0.21,-0.13 1.59,0.8 1.79,0.67 0.2,-0.13 -0.37,-1.54 -0.37,-1.71 0,-0.17 1.83,-1.08 1.71,-1.37 -0.12,-0.29 -2,-0.29 -2.13,-0.38 -0.13,-0.09 -0.58,-2.66 -0.96,-2.46 z"
           fill="#1d1d1b"
           id="path157"
           style="stroke:#ffffff;stroke-width:0.235207;stroke-dasharray:none;stroke-opacity:1" /><path
           d="m 18.54,9 c 0.71,-0.14 1.11,0.51 1,1.13 -0.11,0.62 -1.38,0.78 -1.79,0.39 C 17.34,10.13 17.61,9.15 18.54,9 Z"
           fill="#ffe19b"
           id="path158"
           style="stroke:#ffffff;stroke-width:0.235207;stroke-dasharray:none;stroke-opacity:1" /><path
           d="m 53.16,9.22 a 0.91,0.91 0 0 1 1,1.13 c -0.08,0.62 -1.38,0.78 -1.79,0.39 -0.41,-0.39 -0.13,-1.34 0.79,-1.52 z"
           fill="#ffe19b"
           id="path159"
           style="stroke:#ffffff;stroke-width:0.235207;stroke-dasharray:none;stroke-opacity:1" /><path
           d="m 39.2,26 a 0.93,0.93 0 0 1 -0.86,1.27 c -0.62,0.06 -1.09,-1.16 -0.8,-1.66 0.29,-0.5 1.26,-0.43 1.66,0.39 z"
           fill="#cbe7f5"
           id="path160"
           style="stroke:#ffffff;stroke-width:0.235207;stroke-dasharray:none;stroke-opacity:1" /><path
           d="m 35.77,37.39 a 0.91,0.91 0 0 1 0.88,1.25 c -0.16,0.6 -1.47,0.6 -1.83,0.16 -0.36,-0.44 0.01,-1.35 0.95,-1.41 z"
           fill="#cbe7f5"
           id="path161"
           style="stroke:#ffffff;stroke-width:0.235207;stroke-dasharray:none;stroke-opacity:1" /><path
           d="m 11.21,53.34 a 0.91,0.91 0 0 1 1.52,-0.13 c 0.44,0.44 -0.22,1.57 -0.78,1.66 -0.56,0.09 -1.16,-0.69 -0.74,-1.53 z"
           fill="#ffe19b"
           id="path162"
           style="stroke:#ffffff;stroke-width:0.235207;stroke-dasharray:none;stroke-opacity:1" /><path
           d="m 19,19 c 0.11,-0.4 2.54,0.38 3.29,0.17 0.75,-0.21 1.37,-1.42 1.67,-2 0.3,-0.58 1.54,-3.17 1.83,-3.17 0.29,0 1.54,4.75 2,5.08 0.46,0.33 5.62,1 5.67,1.17 0.05,0.17 -4.26,4.55 -4.3,4.75 -0.04,0.2 0.25,6.41 0.09,6.33 -0.16,-0.08 -3.38,-3 -4.55,-3.08 -1.17,-0.08 -5.37,2.45 -5.5,2.16 -0.13,-0.29 3,-6.71 2.84,-7 C 21.88,23.12 19,19.26 19,19 Z"
           fill="#ffe19b"
           id="path163"
           style="stroke:#ffffff;stroke-width:0.235207;stroke-dasharray:none;stroke-opacity:1" /><g
           fill="#1d1d1b"
           id="g167"
           style="stroke:#ffffff;stroke-width:0.235207;stroke-dasharray:none;stroke-opacity:1"><path
             d="m 22.87,20.59 c 0,-0.13 1.42,-2 1.71,-1.79 0.29,0.21 0.46,0.46 0.29,0.71 a 9.25,9.25 0 0 1 -1.33,1.58 c -0.17,0 -0.71,-0.29 -0.67,-0.5 z"
             id="path164"
             style="stroke:#ffffff;stroke-width:0.235207;stroke-dasharray:none;stroke-opacity:1" /><path
             d="m 24.79,23.34 a 23.13,23.13 0 0 1 2.12,3 c -0.08,0.21 -0.16,0.37 -0.29,0.37 a 20.91,20.91 0 0 1 -2.46,-2.83 c -0.04,-0.25 0.5,-0.29 0.63,-0.54 z"
             id="path165"
             style="stroke:#ffffff;stroke-width:0.235207;stroke-dasharray:none;stroke-opacity:1" /><path
             d="m 25.2,22.59 c -0.06,-0.12 0.42,-0.38 0.67,-0.33 a 9.39,9.39 0 0 1 1.79,2.29 1.28,1.28 0 0 1 -0.25,0.54 c 0,0 -2.04,-2.21 -2.21,-2.5 z"
             id="path166"
             style="stroke:#ffffff;stroke-width:0.235207;stroke-dasharray:none;stroke-opacity:1" /><path
             d="m 26.79,21.3 c -0.08,-0.11 0.58,-0.46 0.79,-0.38 0.21,0.08 1.17,1.34 1.08,1.63 -0.09,0.29 -0.16,0.46 -0.37,0.5 -0.21,0.04 -1.38,-1.59 -1.5,-1.75 z"
             id="path167"
             style="stroke:#ffffff;stroke-width:0.235207;stroke-dasharray:none;stroke-opacity:1" /></g><path
           d="m 23,45.84 c 0.06,-0.2 2,0.12 2.16,-0.08 0.16,-0.2 2,-3.59 2.21,-3.55 0.21,0.04 1.21,3.21 1.33,3.25 0.12,0.04 2.8,0.25 2.84,0.55 0.04,0.3 -2.25,2.54 -2.17,2.87 a 15.72,15.72 0 0 1 0.83,2.5 c -0.16,0 -3,-1.25 -3.29,-1.08 a 6.56,6.56 0 0 1 -2,0.66 c -0.12,-0.12 0.54,-2.62 0.5,-2.83 C 25.37,47.92 23,46 23,45.84 Z"
           fill="#f2910d"
           id="path168"
           style="stroke:#ffffff;stroke-width:0.235207;stroke-dasharray:none;stroke-opacity:1" /><path
           d="m 26.75,46.8 a 5.36,5.36 0 0 1 1.33,1.91 c 0,0.25 -0.21,0.55 -0.33,0.46 a 15.67,15.67 0 0 1 -1.55,-2 c 0,-0.08 0.42,-0.29 0.55,-0.37 z"
           fill="#1d1d1b"
           id="path169"
           style="stroke:#ffffff;stroke-width:0.235207;stroke-dasharray:none;stroke-opacity:1" /><path
           d="m 27.79,45.76 a 5.24,5.24 0 0 1 1.33,1.91 c 0,0.25 -0.21,0.54 -0.33,0.46 a 15.58,15.58 0 0 1 -1.54,-2 c 0,-0.08 0.41,-0.29 0.54,-0.37 z"
           fill="#1d1d1b"
           id="path170"
           style="stroke:#ffffff;stroke-width:0.235207;stroke-dasharray:none;stroke-opacity:1" /><path
           d="m 40.62,32.67 c -0.26,-0.26 3.42,-0.83 3.58,-1.08 0.16,-0.25 2.25,-3.54 2.5,-3.5 0.25,0.04 1.71,3.12 1.92,3.17 0.21,0.05 5,0.41 5,0.66 0,0.25 -2.5,3.84 -2.5,4.09 a 17.54,17.54 0 0 1 0.21,2.75 33.74,33.74 0 0 1 -3,-1.92 2.13,2.13 0 0 0 0.08,-0.63 14,14 0 0 0 -2,-2.16 c -0.16,0 -0.66,0.33 -0.5,0.46 a 11,11 0 0 1 1.5,2.25 c -0.08,0.12 -3.71,3.5 -3.91,3.2 -0.2,-0.3 0.58,-4.66 0.41,-5 -0.17,-0.34 -3.04,-2.04 -3.29,-2.29 z"
           fill="#fab900"
           id="path171"
           style="stroke:#ffffff;stroke-width:0.235207;stroke-dasharray:none;stroke-opacity:1" /><path
           d="m 47.54,33.46 c 0,0 0.54,-0.41 0.71,-0.33 A 14.35,14.35 0 0 1 50,36.21 c -0.09,0.25 -0.63,0.42 -0.63,0.42 0,0 -1.67,-3.08 -1.83,-3.17 z"
           fill="#1d1d1b"
           id="path172"
           style="stroke:#ffffff;stroke-width:0.235207;stroke-dasharray:none;stroke-opacity:1" /><path
           d="m 49.62,32.84 c -0.08,-0.24 0.5,-0.17 0.67,0 0.17,0.17 0.71,1.29 0.54,1.42 -0.17,0.13 -0.5,0.5 -0.58,0.37 -0.08,-0.13 -0.55,-1.54 -0.63,-1.79 z"
           fill="#1d1d1b"
           id="path173"
           style="stroke:#ffffff;stroke-width:0.235207;stroke-dasharray:none;stroke-opacity:1" /></g><g
         id="g191"
         transform="matrix(2048784.3,-836920.88,836920.88,2048784.3,565925860,204057180)"
         style="stroke:#ffffff;stroke-width:0.336463;stroke-dasharray:none;stroke-opacity:1"><g
           id="g192"><path
             d="m 8.34,28.73 c 0,0 -1.63,-0.91 -1.67,-1.25 C 6.63,27.14 6.34,7.73 6.79,7.32 c 0.45,-0.41 6,-0.25 6,-0.09 0,0.16 -0.62,20.88 -0.79,21.17 -0.17,0.29 -1.37,0.21 -1.5,0.38 -0.13,0.17 -0.29,0.87 -0.12,0.87 0.17,0 4.62,0.54 4.66,0.25 a 4,4 0 0 0 0,-0.83 8.25,8.25 0 0 1 -1.5,-0.63 c -0.12,-0.16 0.13,-21.12 0.29,-21.33 0.16,-0.21 6,-0.29 6,0.08 0,0.37 -0.71,21 -0.87,21.29 -0.16,0.29 -1.67,0.59 -1.67,0.71 0,0.12 -0.17,0.75 0,0.75 0.17,0 5.88,0 6.33,0 0.45,0 0.92,-0.12 0.92,-0.12 0,0 -0.37,-3 0.25,-3.29 a 25.87,25.87 0 0 1 4.13,-0.21 l -0.13,-1.84 c 0,0 -7.87,-0.2 -8,-0.58 -0.13,-0.38 -0.37,-4.37 0,-4.58 0.37,-0.21 4,-0.17 3.92,-0.29 -0.08,-0.12 -0.12,-0.71 -0.12,-0.71 0,0 -1.3,-0.34 -1.3,-0.54 0,-0.2 -0.41,-4.05 -0.2,-4.13 0.21,-0.08 7.5,-0.17 7.58,0.17 a 22.16,22.16 0 0 1 -0.25,4.5 c -0.21,0 -2.63,0 -2.63,0 l -0.08,0.75 8.08,0.41 c 0,0 0.13,-0.46 0,-0.46 -0.13,0 -0.62,-0.25 -0.91,-0.29 -0.29,-0.04 -0.5,0 -0.63,-0.16 -0.13,-0.16 -0.66,-1.3 -0.54,-1.38 0.12,-0.08 0.88,-0.46 0.88,-0.46 0,0 -0.84,-1.87 0.16,-3 1,-1.13 1.75,-0.75 2.25,-0.46 a 3.42,3.42 0 0 1 0.92,1 c 0,0 1.25,-0.7 1.75,-0.58 a 0.83,0.83 0 0 1 0.42,1.25 1.47,1.47 0 0 1 -1,0.58 l -0.3,1.09 c 0,0 1,0.5 0.84,1 -0.16,0.5 -0.92,1.29 -1.46,1.21 l -1.38,-0.21 0.05,0.75 c 0,0 5.7,-0.09 5.83,0.41 0.13,0.5 0.33,5.3 -0.29,5.55 -0.62,0.25 -7.84,-0.55 -7.88,-0.3 -0.04,0.25 0,1.63 0,1.63 0,0 3.54,0.87 3.63,1.17 0.09,0.3 -0.13,2 0,2 0.13,0 8.54,0.12 8.54,0 0,-0.12 -0.13,-0.88 -0.13,-0.88 0,0 -2.12,-0.37 -2.21,-0.71 C 44.24,27.89 43.42,7.82 43.88,7.48 44.34,7.14 50,6.9 50,7.19 c 0,0.29 0.05,20.63 -0.16,20.92 a 6.23,6.23 0 0 1 -1.46,0.83 c 0,0 -0.21,0.79 0,0.84 a 30.83,30.83 0 0 0 4.71,0 C 53.04,29.57 53,29.23 53,29.23 c 0,0 -1.71,-0.58 -1.75,-0.79 C 51.21,28.23 50.84,7.4 51,7.23 c 0.16,-0.17 5.71,-0.33 5.84,0 0.13,0.33 0.08,20.92 -0.05,21.17 a 7.85,7.85 0 0 1 -1.75,0.92 37.19,37.19 0 0 0 0.05,3.79 12.79,12.79 0 0 1 2.37,1.25 c 0,0.25 -0.42,11.58 -0.46,16.12 -0.04,4.54 -0.29,6.29 -0.58,6.42 -0.29,0.13 -5.08,0.37 -5.25,0 -0.17,-0.37 0,-9.46 0.12,-14.83 0.12,-5.37 -0.08,-7.25 0.13,-7.42 0.21,-0.17 1.83,-1.12 1.83,-1.33 C 53.25,33.11 53.21,32 53,32 a 40.8,40.8 0 0 0 -4.58,0.09 c -0.08,0.12 -0.12,1.33 0.08,1.41 0.2,0.08 1.84,0.84 1.84,1.17 0,0.33 -0.63,21.88 -0.79,22.13 a 24.74,24.74 0 0 1 -5.84,-0.09 c -0.08,-0.21 0,-21.87 0.17,-22.16 0.17,-0.29 2.5,-1.21 2.5,-1.42 0,-0.21 0,-1.29 0,-1.29 0,0 -8.37,-0.25 -8.33,-0.13 0.04,0.12 0.21,1.13 0,1.25 -0.21,0.12 -4.17,0.17 -4.17,0.38 0,0.21 -0.33,0.46 0,0.58 0.33,0.12 6,0.63 6,0.83 0,0.2 0.13,6 -0.12,6.13 -0.25,0.13 -16.54,0 -16.84,-0.25 -0.3,-0.25 -0.41,-6 -0.25,-6.29 0.16,-0.29 6,-0.38 6,-0.54 0,-0.16 0.17,-0.67 0,-0.67 -0.17,0 -3.87,-0.08 -3.95,-0.33 a 11.71,11.71 0 0 1 -0.17,-1.46 l -7.38,0.37 0.05,1 a 16.34,16.34 0 0 1 2.45,1.08 c 0,0.17 0.46,22 0.17,22.17 -0.29,0.17 -5.62,0.58 -5.75,-0.12 C 13.96,55.14 14,34 14,33.78 c 0,-0.22 1.09,-1.05 1.13,-1.21 0.04,-0.16 0.08,-0.84 0.08,-0.84 l -4.83,-0.29 v 0.79 c 0,0 2.5,1.05 2.54,1.55 0.04,0.5 0.13,22.12 0,22.12 -0.13,0 -5.5,0.42 -5.67,0 C 7.08,55.48 6.5,33.48 6.63,33.28 6.76,33.08 8.46,32.48 8.5,32.23 8.54,31.98 8.34,28.73 8.34,28.73 Z"
             fill="#1d1d1b"
             id="path1"
             style="stroke:#ffffff;stroke-width:0.336463;stroke-dasharray:none;stroke-opacity:1" /></g><g
           fill="#85bfe9"
           id="g45"
           style="stroke:#ffffff;stroke-width:0.336463;stroke-dasharray:none;stroke-opacity:1"><path
             d="m 8.67,8.78 c 0.29,0 2.17,-0.17 2.21,0.12 a 9.57,9.57 0 0 1 -0.13,2.71 5.35,5.35 0 0 1 -2.29,0 C 8.38,11.4 8.34,8.82 8.67,8.78 Z"
             id="path2"
             style="stroke:#ffffff;stroke-width:0.336463;stroke-dasharray:none;stroke-opacity:1" /><path
             d="m 8.59,12.61 a 5.7,5.7 0 0 1 2.12,0.08 v 2.09 c 0,0 -2.29,0.25 -2.29,0 0,-0.25 -0.08,-2 0.17,-2.17 z"
             id="path3-8"
             style="stroke:#ffffff;stroke-width:0.336463;stroke-dasharray:none;stroke-opacity:1" /><path
             d="m 8.46,15.78 a 7,7 0 0 1 2.21,0.08 c 0,0.17 0,2.58 -0.17,2.58 H 8.38 c 0,0 0,-2.62 0.08,-2.66 z"
             id="path4-9"
             style="stroke:#ffffff;stroke-width:0.336463;stroke-dasharray:none;stroke-opacity:1" /><path
             d="m 8.54,19.44 a 7.28,7.28 0 0 1 2,0.09 10.51,10.51 0 0 1 0.05,2.79 9,9 0 0 1 -2.17,-0.13 10.35,10.35 0 0 1 0.12,-2.75 z"
             id="path5-9"
             style="stroke:#ffffff;stroke-width:0.336463;stroke-dasharray:none;stroke-opacity:1" /><path
             d="m 8.59,23.11 c 0,0 1.83,0 1.87,0.17 a 15.89,15.89 0 0 1 -0.21,3.5 c -0.21,0 -1.75,0.12 -1.79,-0.09 a 24.52,24.52 0 0 1 0.13,-3.58 z"
             id="path6-0"
             style="stroke:#ffffff;stroke-width:0.336463;stroke-dasharray:none;stroke-opacity:1" /><path
             d="m 15.42,8.94 c 0.29,0 2.17,-0.16 2.21,0.13 a 9.57,9.57 0 0 1 -0.13,2.71 5.51,5.51 0 0 1 -2.29,0 C 15.13,11.57 15.09,9 15.42,8.94 Z"
             id="path7-3"
             style="stroke:#ffffff;stroke-width:0.336463;stroke-dasharray:none;stroke-opacity:1" /><path
             d="m 15.34,12.78 a 5.49,5.49 0 0 1 2.12,0.08 v 2.08 c 0,0 -2.29,0.25 -2.29,0 0,-0.25 -0.08,-2 0.17,-2.16 z"
             id="path8-8"
             style="stroke:#ffffff;stroke-width:0.336463;stroke-dasharray:none;stroke-opacity:1" /><path
             d="m 15.21,15.94 a 7,7 0 0 1 2.21,0.09 c 0,0.16 0,2.58 -0.17,2.58 h -2.12 c 0,0 0,-2.61 0.08,-2.67 z"
             id="path9-4"
             style="stroke:#ffffff;stroke-width:0.336463;stroke-dasharray:none;stroke-opacity:1" /><path
             d="m 15.29,19.61 a 7.76,7.76 0 0 1 2,0.08 10.51,10.51 0 0 1 0.05,2.79 9,9 0 0 1 -2.17,-0.12 10.33,10.33 0 0 1 0.12,-2.75 z"
             id="path10-4"
             style="stroke:#ffffff;stroke-width:0.336463;stroke-dasharray:none;stroke-opacity:1" /><path
             d="m 15.34,23.28 c 0,0 1.83,-0.05 1.87,0.16 A 15.81,15.81 0 0 1 17,26.94 c -0.21,0 -1.75,0.13 -1.79,-0.08 a 24.52,24.52 0 0 1 0.13,-3.58 z"
             id="path11-9"
             style="stroke:#ffffff;stroke-width:0.336463;stroke-dasharray:none;stroke-opacity:1" /><path
             d="m 46,8.84 c 0.29,0 2.16,-0.21 2.21,0.08 a 9.69,9.69 0 0 1 -0.06,2.71 5.24,5.24 0 0 1 -2.29,0 C 45.73,11.47 45.62,8.89 46,8.84 Z"
             id="path12-3"
             style="stroke:#ffffff;stroke-width:0.336463;stroke-dasharray:none;stroke-opacity:1" /><path
             d="m 46,12.68 a 5.6,5.6 0 0 1 2.13,0 v 2.08 c 0,0 -2.29,0.31 -2.29,0.1 0,-0.21 -0.12,-2.01 0.16,-2.18 z"
             id="path13-9"
             style="stroke:#ffffff;stroke-width:0.336463;stroke-dasharray:none;stroke-opacity:1" /><path
             d="m 45.91,15.85 a 6.77,6.77 0 0 1 2.21,0 c 0,0.16 0.11,2.58 -0.1,2.58 h -2.13 c 0,0 -0.06,-2.54 0.02,-2.58 z"
             id="path14-0"
             style="stroke:#ffffff;stroke-width:0.336463;stroke-dasharray:none;stroke-opacity:1" /><path
             d="m 46.08,19.51 a 7.23,7.23 0 0 1 2,0 10.6,10.6 0 0 1 0.1,2.79 9.14,9.14 0 0 1 -2.18,-0.04 10.43,10.43 0 0 1 0.08,-2.75 z"
             id="path15-6"
             style="stroke:#ffffff;stroke-width:0.336463;stroke-dasharray:none;stroke-opacity:1" /><path
             d="m 46.21,23.17 c 0,0 1.83,-0.08 1.88,0.13 A 15.44,15.44 0 0 1 48,26.8 c -0.2,0.05 -1.74,0.17 -1.79,0 a 25.1,25.1 0 0 1 0,-3.63 z"
             id="path16-8"
             style="stroke:#ffffff;stroke-width:0.336463;stroke-dasharray:none;stroke-opacity:1" /><path
             d="m 52.92,8.84 c 0.29,0 2.16,-0.21 2.21,0.08 a 9.67,9.67 0 0 1 -0.07,2.71 5.24,5.24 0 0 1 -2.29,0 C 52.69,11.47 52.58,8.89 52.92,8.84 Z"
             id="path17-3"
             style="stroke:#ffffff;stroke-width:0.336463;stroke-dasharray:none;stroke-opacity:1" /><path
             d="m 52.92,12.68 a 5.61,5.61 0 0 1 2.13,0 v 2.08 c 0,0 -2.29,0.31 -2.29,0.1 0,-0.21 -0.08,-2.01 0.16,-2.18 z"
             id="path18-7"
             style="stroke:#ffffff;stroke-width:0.336463;stroke-dasharray:none;stroke-opacity:1" /><path
             d="m 52.87,15.85 a 6.77,6.77 0 0 1 2.21,0 10.31,10.31 0 0 1 -0.1,2.58 h -2.13 c 0,0 -0.06,-2.54 0.02,-2.58 z"
             id="path19-1"
             style="stroke:#ffffff;stroke-width:0.336463;stroke-dasharray:none;stroke-opacity:1" /><path
             d="m 53,19.51 c 0.36,0 1.92,-0.13 2,0 A 10.21,10.21 0 0 1 55.11,22.3 9.14,9.14 0 0 1 53,22.26 10.43,10.43 0 0 1 53,19.51 Z"
             id="path20-1"
             style="stroke:#ffffff;stroke-width:0.336463;stroke-dasharray:none;stroke-opacity:1" /><path
             d="m 53.17,23.17 c 0,0 1.83,-0.08 1.88,0.13 a 15.44,15.44 0 0 1 -0.13,3.5 c -0.2,0.05 -1.74,0.17 -1.79,0 a 25.1,25.1 0 0 1 0.04,-3.63 z"
             id="path21-9"
             style="stroke:#ffffff;stroke-width:0.336463;stroke-dasharray:none;stroke-opacity:1" /><path
             d="m 52.79,54.73 c 0.29,0.05 2.16,0.26 2.21,-0.1 a 13.74,13.74 0 0 0 0,-3.29 c -0.2,-0.16 -2.2,-0.31 -2.29,-0.06 -0.09,0.25 -0.25,3.39 0.08,3.45 z"
             id="path22-8"
             style="stroke:#ffffff;stroke-width:0.336463;stroke-dasharray:none;stroke-opacity:1" /><path
             d="m 53,50.08 a 5.59,5.59 0 0 0 2.13,0 c 0,-0.16 0,-2.08 0,-2.08 0,0 -2.29,-0.3 -2.29,-0.1 0,0.2 -0.12,2 0.16,2.18 z"
             id="path23-1"
             style="stroke:#ffffff;stroke-width:0.336463;stroke-dasharray:none;stroke-opacity:1" /><path
             d="m 53.12,46.75 a 8.54,8.54 0 0 0 2.21,0 c 0,-0.15 0.1,-2.26 -0.11,-2.26 h -2.13 a 22.2,22.2 0 0 0 0.03,2.26 z"
             id="path24-9"
             style="stroke:#ffffff;stroke-width:0.336463;stroke-dasharray:none;stroke-opacity:1" /><path
             d="m 53.29,43.67 a 10.76,10.76 0 0 0 2,0 5.73,5.73 0 0 0 0.09,-2.09 11.82,11.82 0 0 0 -2.16,0 5.65,5.65 0 0 0 0.07,2.09 z"
             id="path25-3"
             style="stroke:#ffffff;stroke-width:0.336463;stroke-dasharray:none;stroke-opacity:1" /><path
             d="m 53.53,37.76 a 8.57,8.57 0 0 0 1.88,-0.07 8.24,8.24 0 0 0 -0.15,-2.46 6,6 0 0 0 -1.8,0 13,13 0 0 0 0.07,2.53 z"
             id="path26-6"
             style="stroke:#ffffff;stroke-width:0.336463;stroke-dasharray:none;stroke-opacity:1" /><path
             d="m 53.34,40.83 a 11.23,11.23 0 0 0 2.08,0 c 0,-0.14 0,-2.25 -0.18,-2.29 a 8.2,8.2 0 0 0 -2,0 9.4,9.4 0 0 0 0.1,2.29 z"
             id="path27-3"
             style="stroke:#ffffff;stroke-width:0.336463;stroke-dasharray:none;stroke-opacity:1" /><path
             d="m 45.67,54.48 c 0.29,0.05 2.16,0.26 2.21,-0.1 a 14.28,14.28 0 0 0 -0.05,-3.29 c -0.21,-0.16 -2.2,-0.31 -2.29,-0.06 -0.09,0.25 -0.21,3.39 0.13,3.45 z"
             id="path28-8"
             style="stroke:#ffffff;stroke-width:0.336463;stroke-dasharray:none;stroke-opacity:1" /><path
             d="m 45.84,49.83 a 5.59,5.59 0 0 0 2.13,0 v -2.12 c 0,0 -2.28,-0.3 -2.29,-0.1 -0.01,0.2 -0.09,2.04 0.16,2.22 z"
             id="path29-5"
             style="stroke:#ffffff;stroke-width:0.336463;stroke-dasharray:none;stroke-opacity:1" /><path
             d="m 46,46.5 a 8.56,8.56 0 0 0 2.21,0 c 0,-0.15 0.09,-2.26 -0.12,-2.26 L 46,44.2 a 19.73,19.73 0 0 0 0,2.3 z"
             id="path30-8"
             style="stroke:#ffffff;stroke-width:0.336463;stroke-dasharray:none;stroke-opacity:1" /><path
             d="m 46.17,43.42 a 10.8,10.8 0 0 0 2,0 6.21,6.21 0 0 0 0.09,-2.09 11.93,11.93 0 0 0 -2.17,0 5.65,5.65 0 0 0 0.08,2.09 z"
             id="path31-2"
             style="stroke:#ffffff;stroke-width:0.336463;stroke-dasharray:none;stroke-opacity:1" /><path
             d="M 46.4,37.51 A 8.55,8.55 0 0 0 48.28,37.44 7.63,7.63 0 0 0 48.13,35 5.88,5.88 0 0 0 46.34,35 12.25,12.25 0 0 0 46.4,37.51 Z"
             id="path32-1"
             style="stroke:#ffffff;stroke-width:0.336463;stroke-dasharray:none;stroke-opacity:1" /><path
             d="m 46.21,40.58 a 11.23,11.23 0 0 0 2.08,0 c 0.05,-0.14 0.06,-2.25 -0.18,-2.29 a 8.11,8.11 0 0 0 -2,0 9.42,9.42 0 0 0 0.1,2.29 z"
             id="path33-8"
             style="stroke:#ffffff;stroke-width:0.336463;stroke-dasharray:none;stroke-opacity:1" /><path
             d="m 16.16,54.36 c 0.3,0 2.17,0.16 2.21,-0.2 a 14.41,14.41 0 0 0 -0.2,-3.29 c -0.22,-0.15 -2.22,-0.2 -2.29,0.05 -0.07,0.25 -0.05,3.4 0.28,3.44 z"
             id="path34-4"
             style="stroke:#ffffff;stroke-width:0.336463;stroke-dasharray:none;stroke-opacity:1" /><path
             d="m 16.12,49.71 a 5.63,5.63 0 0 0 2.12,-0.14 c 0,-0.16 -0.09,-2.08 -0.09,-2.08 0,0 -2.3,-0.19 -2.29,0 0.01,0.19 0.01,2.06 0.26,2.22 z"
             id="path35-0"
             style="stroke:#ffffff;stroke-width:0.336463;stroke-dasharray:none;stroke-opacity:1" /><path
             d="m 16.12,46.37 a 8.35,8.35 0 0 0 2.21,-0.12 c 0,-0.15 0,-2.26 -0.22,-2.25 L 16,44.08 a 22.45,22.45 0 0 0 0.12,2.29 z"
             id="path36-2"
             style="stroke:#ffffff;stroke-width:0.336463;stroke-dasharray:none;stroke-opacity:1" /><path
             d="m 16.15,43.29 a 9.91,9.91 0 0 0 2,-0.11 5.85,5.85 0 0 0 0,-2.09 12.63,12.63 0 0 0 -2.17,0.14 5.57,5.57 0 0 0 0.17,2.06 z"
             id="path37-5"
             style="stroke:#ffffff;stroke-width:0.336463;stroke-dasharray:none;stroke-opacity:1" /><path
             d="m 16.11,37.37 a 8.06,8.06 0 0 0 1.89,-0.16 8,8 0 0 0 -0.26,-2.44 5.65,5.65 0 0 0 -1.79,0.1 11.92,11.92 0 0 0 0.16,2.5 z"
             id="path38-0"
             style="stroke:#ffffff;stroke-width:0.336463;stroke-dasharray:none;stroke-opacity:1" /><path
             d="m 16.06,40.46 a 10.55,10.55 0 0 0 2.07,-0.16 c 0.05,-0.14 -0.05,-2.25 -0.28,-2.27 a 7.73,7.73 0 0 0 -2,0.1 9.29,9.29 0 0 0 0.21,2.33 z"
             id="path39-7"
             style="stroke:#ffffff;stroke-width:0.336463;stroke-dasharray:none;stroke-opacity:1" /><path
             d="m 9,54.2 c 0.29,0 2.17,0.15 2.2,-0.21 A 13.86,13.86 0 0 0 11,50.7 C 10.79,50.56 8.79,50.5 8.71,50.76 8.63,51.02 8.7,54.15 9,54.2 Z"
             id="path40-9"
             style="stroke:#ffffff;stroke-width:0.336463;stroke-dasharray:none;stroke-opacity:1" /><path
             d="m 9,49.54 a 5.9,5.9 0 0 0 2.13,-0.13 c 0,-0.17 -0.09,-2.08 -0.09,-2.08 0,0 -2.3,-0.2 -2.3,0 0,0.2 0,2.05 0.26,2.21 z"
             id="path41-9"
             style="stroke:#ffffff;stroke-width:0.336463;stroke-dasharray:none;stroke-opacity:1" /><path
             d="m 9,46.21 a 8.23,8.23 0 0 0 2.2,-0.13 c 0,-0.14 0,-2.25 -0.22,-2.25 L 8.86,43.92 A 20.09,20.09 0 0 0 9,46.21 Z"
             id="path42-9"
             style="stroke:#ffffff;stroke-width:0.336463;stroke-dasharray:none;stroke-opacity:1" /><path
             d="M 9,43.12 A 9.81,9.81 0 0 0 11,43 5.86,5.86 0 0 0 11,40.91 12.49,12.49 0 0 0 8.84,41.06 5.76,5.76 0 0 0 9,43.12 Z"
             id="path43-6"
             style="stroke:#ffffff;stroke-width:0.336463;stroke-dasharray:none;stroke-opacity:1" /><path
             d="M 9,37.21 A 8.74,8.74 0 0 0 10.88,37.05 8.09,8.09 0 0 0 10.61,34.6 6,6 0 0 0 8.82,34.7 12.74,12.74 0 0 0 9,37.21 Z"
             id="path44-0"
             style="stroke:#ffffff;stroke-width:0.336463;stroke-dasharray:none;stroke-opacity:1" /><path
             d="M 8.93,40.29 A 10.65,10.65 0 0 0 11,40.13 C 11,40 11,37.88 10.72,37.86 a 8.3,8.3 0 0 0 -2,0.1 9.79,9.79 0 0 0 0.21,2.33 z"
             id="path45-4"
             style="stroke:#ffffff;stroke-width:0.336463;stroke-dasharray:none;stroke-opacity:1" /></g><path
           d="m 24.42,14.69 c 0,0 5.17,-0.08 5.21,0.09 a 10.07,10.07 0 0 1 -0.21,2.58 c -0.17,0 -5,0 -5.13,-0.17 a 10.06,10.06 0 0 1 0.13,-2.5 z"
           fill="#cbe7f5"
           id="path46-3"
           style="stroke:#ffffff;stroke-width:0.336463;stroke-dasharray:none;stroke-opacity:1" /><path
           d="m 36.46,13.94 c 0.17,0 0.79,0.34 0.5,0.59 -0.29,0.25 -0.87,0.2 -0.92,0.45 -0.05,0.25 -0.54,0.59 0.25,0.63 A 5.84,5.84 0 0 0 38.38,15 c 0,0 -0.63,1.58 -0.5,1.75 0.13,0.17 0.5,0.25 0.58,0.37 0.08,0.12 0.17,0.58 0,0.63 a 2.28,2.28 0 0 1 -2.54,-0.8 c -1.08,-1.26 -0.75,-2.8 0.54,-3.01 z"
           fill="#ddc07c"
           id="path47-4"
           style="stroke:#ffffff;stroke-width:0.336463;stroke-dasharray:none;stroke-opacity:1" /><path
           d="m 22.75,20.69 c 0.3,-0.4 5.34,0 10.46,0.17 5.12,0.17 7.75,0.25 7.88,0.5 0.13,0.25 0.12,2.12 -0.13,2.12 -0.25,0 -7.83,-0.66 -8,-0.33 a 17.69,17.69 0 0 0 -0.29,4.63 c 0.21,0.12 3.75,0.66 3.83,0.95 a 4.54,4.54 0 0 1 0,1.13 l -1,-0.75 c 0,0 -0.33,0.37 -0.21,0.54 0.12,0.17 1.42,1.46 1.21,1.58 -0.21,0.12 -0.42,0.25 -0.58,0.17 -0.16,-0.08 -1.75,-2.12 -2,-2.17 a 2.17,2.17 0 0 0 -0.71,0.13 l 1.42,2.08 a 2.28,2.28 0 0 1 -0.71,0 c -0.13,-0.08 -1.46,-1.75 -1.75,-1.79 a 0.85,0.85 0 0 0 -0.5,0.08 l 1.17,2 c 0,0 -0.92,0.17 -0.92,0.58 0,0.41 -0.33,2.8 0.17,2.88 0.5,0.08 5.91,0.62 6,0.87 a 2.16,2.16 0 0 1 0.08,0.8 c 0,0 -1.08,-0.3 -1.08,-0.05 0,0.25 1,1.88 0.75,2.09 -0.25,0.21 -0.59,0.37 -0.67,0.21 -0.08,-0.16 -2,-2.55 -2,-2.55 0,0 -0.71,0 -0.67,0.17 0.04,0.17 1.71,2.17 1.5,2.27 a 3.73,3.73 0 0 1 -1,0 15.56,15.56 0 0 0 -1.62,-2 c -0.21,-0.05 -0.54,-0.05 -0.59,0.16 a 11.24,11.24 0 0 0 1.09,1.88 c 0,0 -4.54,-0.09 -6.54,0 -2,0.09 -2.67,0.12 -2.67,-0.09 a 23.77,23.77 0 0 1 -0.08,-3.46 c 0.16,-0.12 5.87,-0.12 5.91,-0.37 0.04,-0.25 -0.16,-3 -0.16,-3 A 32.52,32.52 0 0 1 26.5,31.66 c -0.12,-0.17 -0.33,-3.75 -0.08,-3.83 0.25,-0.08 4.37,0 4.46,-0.46 a 26.18,26.18 0 0 0 -0.17,-4.54 c -0.17,-0.09 -7.67,-0.17 -7.83,-0.34 a 3.76,3.76 0 0 1 -0.13,-1.8 z"
           fill="#e6e4da"
           id="path48-9"
           style="stroke:#ffffff;stroke-width:0.336463;stroke-dasharray:none;stroke-opacity:1" /><path
           d="m 27.29,28.4 c 0.08,-0.1 0.92,-0.21 1,0 a 10.83,10.83 0 0 1 0,2.67 c -0.12,0.12 -0.75,0.29 -0.91,0 A 8.62,8.62 0 0 1 27.29,28.4 Z"
           fill="#1d1d1b"
           id="path49-8"
           style="stroke:#ffffff;stroke-width:0.336463;stroke-dasharray:none;stroke-opacity:1" /></g><rect
         style="display:none;fill:#f6ecce;fill-opacity:0.157025;stroke:#ffffff;stroke-width:984000;stroke-linecap:round;stroke-linejoin:round;stroke-opacity:0.00826446;paint-order:stroke fill markers"
         id="rect2"
         width="1200935936"
         height="489716544"
         x="298350400"
         y="114518336"
         sodipodi:insensitive="true" /></g></g></svg>
